<svg xmlns="http://www.w3.org/2000/svg" xmlns:xlink="http://www.w3.org/1999/xlink" width="798" zoomAndPan="magnify" viewBox="0 0 598.5 185.999996" height="248" preserveAspectRatio="xMidYMid meet" version="1.0"><defs><g/><clipPath id="56c63f1735"><path d="M 0 0.078125 L 598 0.078125 L 598 185.921875 L 0 185.921875 Z M 0 0.078125 " clip-rule="nonzero"/></clipPath><clipPath id="9de2aabaac"><path d="M 385.992188 1.398438 L 431.703125 1.398438 L 431.703125 107.808594 L 385.992188 107.808594 Z M 385.992188 1.398438 " clip-rule="nonzero"/></clipPath><clipPath id="bd980ae3e8"><path d="M 385.992188 1.398438 L 431.703125 1.398438 L 431.703125 107.808594 L 385.992188 107.808594 Z M 385.992188 1.398438 " clip-rule="nonzero"/></clipPath><clipPath id="4666dd5a02"><path d="M 87.359375 22.726562 L 193.769531 22.726562 L 193.769531 108.15625 L 87.359375 108.15625 Z M 87.359375 22.726562 " clip-rule="nonzero"/></clipPath><clipPath id="e02088cdc2"><path d="M 87.359375 22.726562 L 193.769531 22.726562 L 193.769531 108.15625 L 87.359375 108.15625 Z M 87.359375 22.726562 " clip-rule="nonzero"/></clipPath><clipPath id="a47adaae56"><path d="M 194.011719 7.019531 L 300.425781 7.019531 L 300.425781 108.1875 L 194.011719 108.1875 Z M 194.011719 7.019531 " clip-rule="nonzero"/></clipPath><clipPath id="4df4a197d7"><path d="M 194.011719 7.019531 L 300.425781 7.019531 L 300.425781 108.1875 L 194.011719 108.1875 Z M 194.011719 7.019531 " clip-rule="nonzero"/></clipPath><clipPath id="db87fd2612"><path d="M 300.667969 1.398438 L 386 1.398438 L 386 107.808594 L 300.667969 107.808594 Z M 300.667969 1.398438 " clip-rule="nonzero"/></clipPath><clipPath id="c0150e0c0e"><path d="M 300.667969 1.398438 L 386 1.398438 L 386 107.808594 L 300.667969 107.808594 Z M 300.667969 1.398438 " clip-rule="nonzero"/></clipPath><clipPath id="cb2d4268a3"><path d="M 0.617188 0.078125 L 86 0.078125 L 86 106.488281 L 0.617188 106.488281 Z M 0.617188 0.078125 " clip-rule="nonzero"/></clipPath><clipPath id="f9eb5c9d61"><path d="M 432.953125 0.078125 L 488.40625 0.078125 L 488.40625 106.488281 L 432.953125 106.488281 Z M 432.953125 0.078125 " clip-rule="nonzero"/></clipPath><clipPath id="d7c22cffa1"><path d="M 432.953125 0.078125 L 488.40625 0.078125 L 488.40625 106.488281 L 432.953125 106.488281 Z M 432.953125 0.078125 " clip-rule="nonzero"/></clipPath><clipPath id="60ee6ed964"><path d="M 489.800781 16 L 596.210938 16 L 596.210938 106.652344 L 489.800781 106.652344 Z M 489.800781 16 " clip-rule="nonzero"/></clipPath><clipPath id="47c2549592"><path d="M 489.800781 16 L 596.210938 16 L 596.210938 106.652344 L 489.800781 106.652344 Z M 489.800781 16 " clip-rule="nonzero"/></clipPath></defs><g clip-path="url(#56c63f1735)"><path fill="#ffffff" d="M 0 0.078125 L 598 0.078125 L 598 185.921875 L 0 185.921875 Z M 0 0.078125 " fill-opacity="1" fill-rule="nonzero"/></g><g clip-path="url(#9de2aabaac)"><path fill="#ffffff" d="M 426.488281 31.941406 L 426.488281 37.003906 L 431.546875 37.003906 L 431.546875 107.867188 L 385.992188 107.867188 L 385.992188 37.003906 L 391.054688 37.003906 L 391.054688 31.941406 L 385.992188 31.941406 L 385.992188 11.695312 L 391.054688 11.695312 L 391.054688 6.632812 L 396.117188 6.632812 L 396.117188 1.570312 L 416.363281 1.570312 L 416.363281 6.632812 L 426.488281 6.632812 L 426.488281 11.695312 L 431.546875 11.695312 L 431.546875 31.941406 Z M 426.488281 31.941406 " fill-opacity="1" fill-rule="nonzero"/></g><path fill="#4d769c" d="M 391.054688 42.066406 L 426.488281 42.066406 L 426.488281 102.804688 L 391.054688 102.804688 Z M 416.363281 11.695312 L 416.363281 6.632812 L 396.117188 6.632812 L 396.117188 11.695312 L 391.054688 11.695312 L 391.054688 31.941406 L 396.117188 31.941406 L 396.117188 37.003906 L 416.363281 37.003906 L 416.363281 31.941406 L 426.488281 31.941406 L 426.488281 11.695312 Z M 416.363281 11.695312 " fill-opacity="1" fill-rule="nonzero"/><path fill="#38b6ff" d="M 416.363281 16.753906 L 416.363281 26.878906 L 411.300781 26.878906 L 411.300781 31.941406 L 406.242188 31.941406 L 401.175781 26.878906 L 398.378906 25.367188 L 398.378906 19.714844 L 401.175781 16.753906 L 406.082031 11.695312 L 411.300781 11.695312 L 411.300781 16.753906 Z M 398.378906 94.101562 L 411.300781 97.746094 L 416.363281 97.746094 L 416.363281 47.125 L 401.179688 47.128906 Z M 398.378906 94.101562 " fill-opacity="1" fill-rule="nonzero"/><path fill="#f6f4da" d="M 411.300781 92.683594 L 411.300781 97.746094 L 396.117188 97.746094 L 396.117188 47.128906 L 401.179688 47.128906 L 401.179688 92.683594 Z M 406.242188 31.941406 L 406.242188 26.878906 L 401.179688 26.878906 L 401.179688 31.941406 Z M 406.242188 11.695312 L 401.179688 11.695312 L 401.179688 16.757812 L 406.242188 16.757812 Z M 401.179688 21.816406 L 401.179688 16.757812 L 396.117188 16.757812 L 396.117188 26.878906 L 401.179688 26.878906 Z M 401.179688 21.816406 " fill-opacity="1" fill-rule="nonzero"/><path fill="#f6f4da" d="M 406.242188 72.4375 L 411.300781 72.4375 L 411.300781 77.496094 L 406.242188 77.496094 Z M 406.242188 62.3125 L 411.300781 62.3125 L 411.300781 57.25 L 406.242188 57.25 Z M 406.242188 16.757812 L 406.242188 21.816406 L 411.300781 21.816406 L 411.300781 16.757812 Z M 406.242188 16.757812 " fill-opacity="1" fill-rule="nonzero"/><g clip-path="url(#bd980ae3e8)"><path fill="#ffffff" d="M 426.488281 11.695312 L 431.550781 11.695312 L 431.550781 31.941406 L 426.488281 31.941406 Z M 416.363281 31.941406 L 416.363281 37.003906 L 396.117188 37.003906 L 396.117188 31.941406 L 391.054688 31.941406 L 391.054688 37.003906 L 385.992188 37.003906 L 385.992188 107.867188 L 431.550781 107.867188 L 431.550781 37.003906 L 426.488281 37.003906 L 426.488281 31.941406 Z M 426.488281 47.128906 L 426.488281 102.808594 L 391.054688 102.808594 L 391.054688 42.066406 L 426.488281 42.066406 Z M 416.363281 11.695312 L 416.363281 6.632812 L 426.488281 6.632812 L 426.488281 11.695312 Z M 406.242188 77.496094 L 411.300781 77.496094 L 411.300781 82.558594 L 406.242188 82.558594 Z M 406.242188 62.3125 L 411.300781 62.3125 L 411.300781 67.375 L 406.242188 67.375 Z M 406.242188 21.816406 L 411.300781 21.816406 L 411.300781 26.878906 L 406.242188 26.878906 Z M 401.179688 6.632812 L 396.117188 6.632812 L 396.117188 1.570312 L 421.425781 1.570312 L 421.425781 6.632812 Z M 396.117188 11.695312 L 391.054688 11.695312 L 391.054688 6.632812 L 396.117188 6.632812 Z M 391.054688 26.878906 L 391.054688 31.941406 L 385.992188 31.941406 L 385.992188 11.695312 L 391.054688 11.695312 Z M 391.054688 26.878906 " fill-opacity="1" fill-rule="nonzero"/></g><g clip-path="url(#4666dd5a02)"><path fill="#ffffff" d="M 194.003906 33.394531 L 194.003906 108.046875 L 146.011719 108.046875 L 146.011719 65.390625 L 135.347656 65.390625 L 135.347656 108.046875 L 87.359375 108.046875 L 87.359375 28.0625 L 92.691406 28.0625 L 92.691406 22.730469 L 183.339844 22.730469 L 183.339844 28.0625 L 188.671875 28.0625 L 188.671875 33.394531 Z M 194.003906 33.394531 " fill-opacity="1" fill-rule="nonzero"/></g><path fill="#4d769c" d="M 188.671875 38.726562 L 188.671875 102.714844 L 151.34375 102.714844 L 151.34375 60.058594 L 130.015625 60.058594 L 130.015625 102.714844 L 92.691406 102.714844 L 92.691406 33.394531 L 98.023438 33.394531 L 98.023438 28.0625 L 124.683594 28.0625 L 124.683594 33.394531 L 130.015625 33.394531 L 130.015625 28.0625 L 178.003906 28.0625 L 178.003906 33.394531 L 183.339844 33.394531 L 183.339844 38.726562 Z M 188.671875 38.726562 " fill-opacity="1" fill-rule="nonzero"/><path fill="#38b6ff" d="M 178.003906 44.058594 L 178.003906 97.382812 L 156.675781 97.382812 L 156.675781 54.726562 L 124.683594 54.726562 L 124.683594 60.058594 L 119.351562 60.058594 L 119.351562 97.382812 L 108.6875 97.382812 L 99.726562 94.296875 L 101.097656 44.53125 L 108.6875 33.394531 L 119.351562 33.394531 L 119.351562 44.058594 L 124.683594 44.058594 L 124.683594 38.726562 L 135.347656 38.726562 L 135.347656 33.394531 L 162.007812 33.394531 L 162.007812 38.726562 L 172.671875 38.726562 L 172.671875 44.058594 Z M 178.003906 44.058594 " fill-opacity="1" fill-rule="nonzero"/><path fill="#f6f4da" d="M 103.355469 38.726562 L 98.023438 38.726562 L 98.023438 97.382812 L 108.6875 97.382812 L 108.6875 92.050781 L 103.355469 92.050781 L 103.355469 44.058594 L 108.6875 44.058594 L 108.6875 33.394531 L 103.355469 33.394531 Z M 103.355469 38.726562 " fill-opacity="1" fill-rule="nonzero"/><path fill="#f6f4da" d="M 167.34375 70.722656 L 167.34375 76.054688 L 172.675781 76.054688 L 172.675781 65.390625 L 167.34375 65.390625 Z M 167.34375 54.726562 L 172.675781 54.726562 L 172.675781 49.390625 L 167.34375 49.390625 Z M 167.34375 54.726562 " fill-opacity="1" fill-rule="nonzero"/><g clip-path="url(#e02088cdc2)"><path fill="#ffffff" d="M 188.671875 33.394531 L 194.003906 33.394531 L 194.003906 108.046875 L 146.015625 108.046875 L 146.015625 65.390625 L 135.347656 65.390625 L 135.347656 108.046875 L 87.359375 108.046875 L 87.359375 28.0625 L 92.691406 28.0625 L 92.691406 22.730469 L 183.339844 22.730469 L 183.339844 28.0625 L 188.671875 28.0625 Z M 183.339844 38.726562 L 183.339844 33.394531 L 178.007812 33.394531 L 178.007812 28.0625 L 130.015625 28.0625 L 130.015625 33.394531 L 124.683594 33.394531 L 124.683594 28.0625 L 98.023438 28.0625 L 98.023438 33.394531 L 92.691406 33.394531 L 92.691406 102.714844 L 130.015625 102.714844 L 130.015625 60.058594 L 151.347656 60.058594 L 151.347656 102.714844 L 188.671875 102.714844 L 188.671875 38.726562 Z M 167.34375 81.386719 L 167.34375 86.71875 L 172.675781 86.71875 L 172.675781 76.054688 L 167.34375 76.054688 Z M 167.34375 60.058594 L 172.675781 60.058594 L 172.675781 54.726562 L 167.34375 54.726562 Z M 167.34375 60.058594 " fill-opacity="1" fill-rule="nonzero"/></g><g clip-path="url(#a47adaae56)"><path fill="#ffffff" d="M 300.652344 18.246094 L 300.652344 108.039062 L 205.242188 108.039062 L 205.242188 96.816406 L 194.019531 96.816406 L 194.019531 46.304688 L 199.632812 46.304688 L 199.632812 40.695312 L 205.242188 40.695312 L 205.242188 18.246094 L 210.855469 18.246094 L 210.855469 12.632812 L 216.46875 12.632812 L 216.46875 7.019531 L 289.425781 7.019531 L 289.425781 12.632812 L 295.039062 12.632812 L 295.039062 18.246094 Z M 300.652344 18.246094 " fill-opacity="1" fill-rule="nonzero"/></g><path fill="#4d769c" d="M 289.425781 23.855469 L 289.425781 18.246094 L 283.816406 18.246094 L 283.816406 12.632812 L 222.082031 12.632812 L 222.082031 18.246094 L 216.46875 18.246094 L 216.46875 23.855469 L 210.855469 23.855469 L 210.855469 46.304688 L 205.242188 46.304688 L 205.242188 51.917969 L 199.632812 51.917969 L 199.632812 91.203125 L 205.242188 91.203125 L 205.242188 96.816406 L 210.855469 96.816406 L 210.855469 102.429688 L 295.039062 102.429688 L 295.039062 23.855469 Z M 244.527344 35.082031 L 261.367188 35.082031 L 261.367188 40.695312 L 244.527344 40.695312 Z M 261.367188 68.753906 L 255.753906 68.753906 L 255.753906 74.367188 L 244.527344 74.367188 L 244.527344 63.144531 L 261.367188 63.144531 Z M 261.367188 68.753906 " fill-opacity="1" fill-rule="nonzero"/><path fill="#38b6ff" d="M 278.203125 23.855469 L 278.203125 18.246094 L 231.550781 18.246094 L 231.550781 23.855469 L 227.695312 23.859375 L 224.316406 26.054688 L 222.082031 29.46875 L 219.273438 31.699219 L 222.082031 35.082031 L 238.917969 35.082031 L 238.917969 29.46875 L 266.976562 29.46875 L 266.976562 46.304688 L 222.082031 46.304688 L 219.648438 49.113281 L 216.46875 51.917969 L 214.714844 57.53125 L 207.90625 61.796875 L 207.90625 82.484375 L 213.226562 85.59375 L 216.46875 89.007812 L 220.550781 93.421875 L 227.691406 96.816406 L 283.816406 96.816406 L 283.816406 23.855469 Z M 266.976562 74.367188 L 261.367188 74.367188 L 261.367188 79.980469 L 233.304688 79.980469 L 233.304688 74.367188 L 227.691406 74.367188 L 227.691406 63.144531 L 233.304688 63.144531 L 233.304688 57.53125 L 266.976562 57.53125 Z M 266.976562 74.367188 " fill-opacity="1" fill-rule="nonzero"/><path fill="#f6f4da" d="M 227.695312 23.859375 L 227.695312 29.46875 L 222.082031 29.46875 L 222.082031 23.859375 Z M 222.082031 85.59375 L 216.46875 85.59375 L 216.46875 79.980469 L 210.855469 79.980469 L 210.855469 63.144531 L 216.46875 63.144531 L 216.46875 51.917969 L 210.855469 51.917969 L 210.855469 57.53125 L 205.246094 57.53125 L 205.246094 85.59375 L 210.855469 85.59375 L 210.855469 91.203125 L 216.46875 91.203125 L 216.46875 96.816406 L 227.695312 96.816406 L 227.695312 91.203125 L 222.082031 91.203125 Z M 222.082031 46.308594 L 216.46875 46.308594 L 216.46875 51.917969 L 222.082031 51.917969 Z M 216.46875 35.082031 L 222.082031 35.082031 L 222.082031 29.46875 L 216.46875 29.46875 Z M 216.46875 35.082031 " fill-opacity="1" fill-rule="nonzero"/><path fill="#f6f4da" d="M 272.589844 46.308594 L 278.203125 46.308594 L 278.203125 63.144531 L 272.589844 63.144531 Z M 272.589844 29.46875 L 272.589844 35.082031 L 278.203125 35.082031 L 278.203125 29.46875 Z M 272.589844 29.46875 " fill-opacity="1" fill-rule="nonzero"/><g clip-path="url(#4df4a197d7)"><path fill="#ffffff" d="M 255.753906 35.082031 L 261.367188 35.082031 L 261.367188 40.695312 L 244.53125 40.695312 L 244.53125 35.082031 Z M 250.144531 63.144531 L 244.53125 63.144531 L 244.53125 74.367188 L 255.753906 74.367188 L 255.753906 68.753906 L 261.367188 68.753906 L 261.367188 63.144531 Z M 272.589844 68.753906 L 272.589844 79.980469 L 278.203125 79.980469 L 278.203125 63.144531 L 272.589844 63.144531 Z M 300.652344 18.246094 L 300.652344 108.042969 L 205.246094 108.042969 L 205.246094 102.429688 L 199.632812 102.429688 L 199.632812 96.816406 L 194.019531 96.816406 L 194.019531 46.308594 L 199.632812 46.308594 L 199.632812 40.695312 L 205.246094 40.695312 L 205.246094 18.246094 L 210.855469 18.246094 L 210.855469 12.632812 L 216.46875 12.632812 L 216.46875 7.019531 L 289.429688 7.019531 L 289.429688 12.632812 L 295.039062 12.632812 L 295.039062 18.246094 Z M 295.039062 23.859375 L 289.429688 23.859375 L 289.429688 18.246094 L 283.816406 18.246094 L 283.816406 12.632812 L 222.082031 12.632812 L 222.082031 18.246094 L 216.46875 18.246094 L 216.46875 23.859375 L 210.855469 23.859375 L 210.855469 46.308594 L 205.246094 46.308594 L 205.246094 51.917969 L 199.632812 51.917969 L 199.632812 91.203125 L 205.246094 91.203125 L 205.246094 96.816406 L 210.855469 96.816406 L 210.855469 102.429688 L 295.039062 102.429688 Z M 272.589844 40.695312 L 278.203125 40.695312 L 278.203125 35.082031 L 272.589844 35.082031 Z M 272.589844 40.695312 " fill-opacity="1" fill-rule="nonzero"/></g><g clip-path="url(#db87fd2612)"><path fill="#ffffff" d="M 381.722656 9.929688 L 377.457031 9.929688 L 377.457031 5.664062 L 373.191406 5.664062 L 373.191406 1.398438 L 300.671875 1.398438 L 300.671875 108.042969 L 381.722656 108.042969 L 381.722656 103.777344 L 385.988281 103.777344 L 385.988281 52.585938 L 381.722656 52.585938 L 381.722656 48.320312 L 385.988281 48.320312 L 385.988281 9.929688 Z M 339.0625 73.914062 L 339.0625 65.382812 L 343.328125 65.382812 L 343.328125 78.179688 L 339.0625 78.179688 Z M 339.0625 73.914062 " fill-opacity="1" fill-rule="nonzero"/></g><path fill="#4d769c" d="M 377.457031 48.320312 L 377.457031 44.054688 L 381.722656 44.054688 L 381.722656 14.195312 L 377.457031 14.195312 L 377.457031 9.929688 L 373.1875 9.929688 L 373.1875 5.664062 L 304.9375 5.664062 L 304.9375 103.777344 L 377.457031 103.777344 L 377.457031 99.511719 L 381.722656 99.511719 L 381.722656 56.851562 L 377.457031 56.851562 L 377.457031 52.585938 L 373.1875 52.585938 L 373.1875 48.320312 Z M 334.796875 31.257812 L 351.859375 31.257812 L 351.859375 39.789062 L 334.796875 39.789062 Z M 347.59375 82.445312 L 334.796875 82.445312 L 334.796875 61.117188 L 347.59375 61.117188 L 347.59375 65.382812 L 351.859375 65.382812 L 351.859375 78.179688 L 347.59375 78.179688 Z M 347.59375 82.445312 " fill-opacity="1" fill-rule="nonzero"/><path fill="#38b6ff" d="M 368.921875 48.320312 L 368.921875 44.054688 L 373.1875 44.054688 L 373.1875 18.460938 L 368.921875 18.460938 L 366.792969 16.328125 L 364.65625 14.195312 L 360.394531 9.929688 L 317.734375 9.929688 L 313.429688 96.234375 L 322 99.511719 L 368.921875 99.511719 L 368.921875 95.246094 L 373.1875 95.246094 L 373.1875 61.117188 L 368.921875 61.117188 L 368.921875 56.851562 L 364.65625 56.851562 L 364.65625 48.320312 Z M 356.125 82.445312 L 351.859375 82.445312 L 351.859375 86.710938 L 326.265625 86.710938 L 326.265625 56.851562 L 351.859375 56.851562 L 351.859375 61.117188 L 356.125 61.117188 Z M 356.125 39.789062 L 351.859375 39.789062 L 351.859375 44.054688 L 326.265625 44.054688 L 326.265625 26.992188 L 351.859375 26.992188 L 351.859375 31.257812 L 356.125 31.257812 Z M 356.125 39.789062 " fill-opacity="1" fill-rule="nonzero"/><path fill="#f6f4da" d="M 364.660156 65.382812 L 368.925781 65.382812 L 368.925781 73.914062 L 364.660156 73.914062 Z M 364.660156 26.992188 L 364.660156 35.523438 L 368.925781 35.523438 L 368.925781 22.726562 L 364.660156 22.726562 Z M 364.660156 14.195312 L 364.660156 18.460938 L 368.925781 18.460938 L 368.925781 14.195312 Z M 360.394531 9.929688 L 360.394531 14.195312 L 364.660156 14.195312 L 364.660156 9.929688 Z M 360.394531 9.929688 " fill-opacity="1" fill-rule="nonzero"/><path fill="#f6f4da" d="M 322 95.246094 L 322 99.511719 L 309.203125 99.511719 L 309.203125 9.929688 L 317.734375 9.929688 L 317.734375 95.246094 Z M 322 95.246094 " fill-opacity="1" fill-rule="nonzero"/><g clip-path="url(#c0150e0c0e)"><path fill="#ffffff" d="M 381.722656 61.117188 L 381.722656 56.851562 L 385.988281 56.851562 L 385.988281 103.777344 L 381.722656 103.777344 L 381.722656 108.042969 L 300.671875 108.042969 L 300.671875 1.398438 L 373.191406 1.398438 L 373.191406 5.664062 L 304.9375 5.664062 L 304.9375 103.777344 L 377.457031 103.777344 L 377.457031 99.511719 L 381.722656 99.511719 Z M 381.722656 9.929688 L 377.457031 9.929688 L 377.457031 14.195312 L 381.722656 14.195312 L 381.722656 44.054688 L 377.457031 44.054688 L 377.457031 48.320312 L 373.191406 48.320312 L 373.191406 52.585938 L 377.457031 52.585938 L 377.457031 56.851562 L 385.988281 56.851562 L 385.988281 52.585938 L 381.722656 52.585938 L 381.722656 48.320312 L 385.988281 48.320312 L 385.988281 9.929688 Z M 377.457031 9.929688 L 377.457031 5.664062 L 373.191406 5.664062 L 373.191406 9.929688 Z M 364.660156 78.179688 L 364.660156 86.714844 L 368.925781 86.714844 L 368.925781 73.914062 L 364.660156 73.914062 Z M 364.660156 39.789062 L 368.925781 39.789062 L 368.925781 35.523438 L 364.660156 35.523438 Z M 347.59375 65.382812 L 351.863281 65.382812 L 351.863281 78.179688 L 347.59375 78.179688 L 347.59375 82.449219 L 334.796875 82.449219 L 334.796875 61.117188 L 347.59375 61.117188 Z M 343.328125 65.382812 L 339.0625 65.382812 L 339.0625 78.179688 L 343.328125 78.179688 Z M 343.328125 31.257812 L 334.796875 31.257812 L 334.796875 39.789062 L 351.863281 39.789062 L 351.863281 31.257812 Z M 343.328125 31.257812 " fill-opacity="1" fill-rule="nonzero"/></g><g clip-path="url(#cb2d4268a3)"><path fill="#ffffff" d="M 85.9375 12.875 L 85.9375 106.722656 L 43.277344 106.722656 L 43.277344 64.066406 L 39.011719 64.066406 L 39.011719 106.722656 L 0.621094 106.722656 L 0.621094 8.609375 L 4.886719 8.609375 L 4.886719 4.34375 L 9.152344 4.34375 L 9.152344 0.078125 L 73.140625 0.078125 L 73.140625 4.34375 L 77.40625 4.34375 L 77.40625 8.609375 L 81.671875 8.609375 L 81.671875 12.875 Z M 85.9375 12.875 " fill-opacity="1" fill-rule="nonzero"/></g><path fill="#4d769c" d="M 77.40625 17.140625 L 77.40625 12.875 L 73.140625 12.875 L 73.140625 8.609375 L 68.871094 8.609375 L 68.871094 4.34375 L 13.417969 4.34375 L 13.417969 8.609375 L 9.152344 8.609375 L 9.152344 12.875 L 4.886719 12.875 L 4.886719 102.457031 L 34.746094 102.457031 L 34.746094 59.800781 L 47.542969 59.800781 L 47.542969 102.457031 L 81.671875 102.457031 L 81.671875 17.140625 C 81.671875 17.140625 77.40625 17.140625 77.40625 17.140625 Z M 47.542969 29.9375 L 47.542969 38.46875 L 34.746094 38.46875 L 34.746094 29.9375 Z M 47.542969 29.9375 " fill-opacity="1" fill-rule="nonzero"/><path fill="#f6f4da" d="M 64.605469 59.800781 L 68.871094 59.800781 L 68.871094 72.597656 L 64.605469 72.597656 Z M 64.605469 25.671875 L 64.605469 34.203125 L 68.871094 34.203125 L 68.871094 21.40625 L 64.605469 21.40625 Z M 64.605469 12.875 L 64.605469 17.140625 L 68.871094 17.140625 L 68.871094 12.875 Z M 60.339844 8.609375 L 60.339844 12.875 L 64.605469 12.875 L 64.605469 8.609375 Z M 60.339844 8.609375 " fill-opacity="1" fill-rule="nonzero"/><path fill="#38b6ff" d="M 68.871094 17.140625 L 64.605469 12.875 L 62.472656 11.75 L 60.339844 8.609375 L 26.214844 8.609375 L 19.878906 12.875 L 17.683594 16.050781 L 15.613281 17.140625 L 12.75 94.941406 L 21.949219 98.191406 L 26.214844 98.191406 L 26.214844 55.53125 L 56.074219 55.53125 L 56.074219 98.191406 L 73.140625 98.191406 L 73.140625 17.140625 Z M 56.074219 42.734375 L 26.214844 42.734375 L 26.214844 29.9375 L 30.480469 29.9375 L 30.480469 25.671875 L 51.808594 25.671875 L 51.808594 29.9375 L 56.074219 29.9375 Z M 56.074219 42.734375 " fill-opacity="1" fill-rule="nonzero"/><path fill="#f6f4da" d="M 26.214844 8.609375 L 26.214844 21.40625 L 21.949219 21.40625 L 21.949219 29.9375 L 17.683594 29.9375 L 17.683594 93.925781 L 21.949219 93.925781 L 21.949219 98.191406 L 9.152344 98.191406 L 9.152344 17.140625 L 13.417969 17.140625 L 13.417969 12.875 L 17.683594 12.875 L 17.683594 8.609375 Z M 26.214844 8.609375 " fill-opacity="1" fill-rule="nonzero"/><path fill="#f6f4da" d="M 64.605469 59.800781 L 68.871094 59.800781 L 68.871094 72.597656 L 64.605469 72.597656 Z M 64.605469 25.671875 L 64.605469 34.203125 L 68.871094 34.203125 L 68.871094 21.40625 L 64.605469 21.40625 Z M 64.605469 12.875 L 64.605469 17.140625 L 68.871094 17.140625 L 68.871094 12.875 Z M 60.339844 8.609375 L 60.339844 12.875 L 64.605469 12.875 L 64.605469 8.609375 Z M 60.339844 8.609375 " fill-opacity="1" fill-rule="nonzero"/><g clip-path="url(#f9eb5c9d61)"><path fill="#ffffff" d="M 432.953125 34.203125 L 432.953125 64.0625 L 437.21875 64.0625 L 437.21875 102.457031 L 441.484375 102.457031 L 441.484375 106.722656 L 484.140625 106.722656 L 484.140625 102.457031 L 488.40625 102.457031 L 488.40625 68.328125 L 475.609375 68.328125 L 475.609375 64.0625 L 484.140625 64.0625 L 484.140625 34.203125 L 475.609375 34.203125 L 475.609375 0.078125 L 437.21875 0.078125 L 437.21875 34.203125 Z M 432.953125 34.203125 " fill-opacity="1" fill-rule="nonzero"/></g><path fill="#4d769c" d="M 437.21875 38.46875 L 437.21875 59.796875 L 441.484375 59.796875 L 441.484375 98.191406 L 445.75 98.191406 L 445.75 102.457031 L 479.875 102.457031 L 479.875 98.191406 L 484.140625 98.191406 L 484.140625 72.59375 L 471.34375 72.59375 L 471.34375 59.796875 L 479.875 59.796875 L 479.875 38.46875 L 471.34375 38.46875 L 471.34375 4.34375 L 441.484375 4.34375 L 441.484375 38.46875 Z M 437.21875 38.46875 " fill-opacity="1" fill-rule="nonzero"/><path fill="#38b6ff" d="M 441.484375 42.734375 L 441.484375 55.53125 L 450.015625 55.53125 L 450.015625 93.925781 L 454.28125 93.925781 L 454.28125 98.191406 L 475.609375 98.191406 L 475.609375 93.925781 L 478.285156 78.492188 L 471.339844 81.128906 L 471.34375 85.394531 L 467.078125 85.394531 L 467.078125 55.53125 L 471.339844 55.53125 L 473.558594 45.3125 L 467.078125 42.734375 L 462.808594 8.609375 L 450.015625 8.609375 L 450.015625 42.734375 Z M 441.484375 42.734375 " fill-opacity="1" fill-rule="nonzero"/><path fill="#f6f4da" d="M 467.074219 59.796875 L 467.074219 85.394531 L 462.808594 85.394531 L 462.808594 55.53125 L 467.074219 55.53125 Z M 467.074219 12.875 L 467.074219 42.734375 L 462.808594 42.734375 L 462.808594 8.609375 L 467.074219 8.609375 Z M 475.605469 42.734375 L 475.605469 55.53125 L 471.339844 55.53125 L 471.339844 47 L 467.074219 47 L 467.074219 42.734375 Z M 479.871094 76.863281 L 479.871094 93.925781 L 475.605469 93.925781 L 475.605469 81.128906 L 471.339844 81.128906 L 471.339844 76.863281 Z M 479.871094 76.863281 " fill-opacity="1" fill-rule="nonzero"/><path fill="#f6f4da" d="M 458.542969 76.863281 L 458.542969 81.128906 L 454.277344 81.128906 L 454.277344 72.597656 L 458.542969 72.597656 Z M 458.542969 29.9375 L 458.542969 34.203125 L 454.277344 34.203125 L 454.277344 25.671875 L 458.542969 25.671875 Z M 458.542969 29.9375 " fill-opacity="1" fill-rule="nonzero"/><g clip-path="url(#d7c22cffa1)"><path fill="#ffffff" d="M 437.214844 34.203125 L 432.949219 34.203125 L 432.949219 64.066406 L 437.214844 64.066406 L 437.214844 102.457031 L 441.480469 102.457031 L 441.480469 106.722656 L 484.136719 106.722656 L 484.136719 102.457031 L 488.402344 102.457031 L 488.402344 68.332031 L 475.605469 68.332031 L 475.605469 64.066406 L 484.136719 64.066406 L 484.136719 34.203125 L 475.605469 34.203125 L 475.605469 0.078125 L 437.214844 0.078125 Z M 441.480469 38.46875 L 441.480469 4.34375 L 471.339844 4.34375 L 471.339844 38.46875 L 479.871094 38.46875 L 479.871094 59.796875 L 471.339844 59.796875 L 471.339844 72.597656 L 484.136719 72.597656 L 484.136719 98.191406 L 479.871094 98.191406 L 479.871094 102.457031 L 445.746094 102.457031 L 445.746094 98.191406 L 441.480469 98.191406 L 441.480469 59.796875 L 437.214844 59.796875 L 437.214844 38.46875 Z M 458.542969 68.332031 L 458.542969 72.597656 L 454.277344 72.597656 L 454.277344 64.066406 L 458.542969 64.066406 Z M 458.542969 25.671875 L 454.277344 25.671875 L 454.277344 21.40625 L 458.542969 21.40625 Z M 458.542969 25.671875 " fill-opacity="1" fill-rule="nonzero"/></g><g clip-path="url(#60ee6ed964)"><path fill="#ffffff" d="M 591.113281 58.683594 L 591.113281 64.015625 L 596.445312 64.015625 L 596.445312 101.34375 L 591.113281 101.34375 L 591.113281 106.675781 L 495.132812 106.675781 L 495.132812 101.34375 L 489.800781 101.34375 L 489.800781 21.359375 L 495.132812 21.359375 L 495.132812 16.027344 L 591.113281 16.027344 L 591.113281 21.359375 L 596.445312 21.359375 L 596.445312 58.683594 Z M 591.113281 58.683594 " fill-opacity="1" fill-rule="nonzero"/></g><path fill="#4d769c" d="M 585.78125 64.015625 L 585.78125 58.683594 L 591.113281 58.683594 L 591.113281 26.691406 L 585.78125 26.691406 L 585.78125 21.359375 L 500.464844 21.359375 L 500.464844 26.691406 L 495.132812 26.691406 L 495.132812 96.011719 L 500.464844 96.011719 L 500.464844 101.34375 L 585.78125 101.34375 L 585.78125 96.011719 L 591.113281 96.011719 L 591.113281 69.347656 L 575.117188 69.347656 L 575.117188 64.015625 Z M 559.121094 80.015625 L 532.457031 80.015625 L 532.457031 69.347656 L 559.121094 69.347656 Z M 559.121094 80.015625 " fill-opacity="1" fill-rule="nonzero"/><path fill="#38b6ff" d="M 575.117188 64.015625 L 575.117188 58.683594 L 580.449219 58.683594 L 580.449219 42.6875 L 575.117188 32.023438 L 569.785156 26.691406 L 516.460938 26.691406 L 506.757812 33.625 L 503.472656 36.867188 L 503.324219 85.347656 L 508.464844 89.078125 L 516.460938 96.011719 L 580.449219 96.011719 L 580.449219 74.683594 L 564.453125 74.683594 L 564.453125 85.347656 L 521.792969 85.347656 L 521.792969 64.015625 Z M 521.792969 42.6875 L 559.121094 42.6875 L 559.121094 53.351562 L 521.792969 53.351562 Z M 521.792969 42.6875 " fill-opacity="1" fill-rule="nonzero"/><path fill="#f6f4da" d="M 505.796875 26.691406 L 505.796875 32.023438 L 500.464844 32.023438 L 500.464844 90.679688 L 505.796875 90.679688 L 505.796875 96.011719 L 516.460938 96.011719 L 516.460938 90.679688 L 511.128906 90.679688 L 511.128906 85.347656 L 505.796875 85.347656 L 505.796875 37.355469 L 511.128906 37.355469 L 511.128906 32.023438 L 516.460938 32.023438 L 516.460938 26.691406 Z M 505.796875 26.691406 " fill-opacity="1" fill-rule="nonzero"/><path fill="#f6f4da" d="M 580.449219 32.023438 L 580.449219 42.6875 L 569.785156 42.6875 L 569.785156 37.355469 L 575.117188 37.355469 L 575.117188 32.023438 Z M 569.785156 85.347656 L 575.117188 85.347656 L 575.117188 80.015625 L 569.785156 80.015625 Z M 569.785156 26.691406 L 569.785156 32.023438 L 575.117188 32.023438 L 575.117188 26.691406 Z M 569.785156 26.691406 " fill-opacity="1" fill-rule="nonzero"/><g clip-path="url(#47c2549592)"><path fill="#ffffff" d="M 591.113281 21.359375 L 596.445312 21.359375 L 596.445312 58.683594 L 591.113281 58.683594 L 591.113281 26.691406 L 585.78125 26.691406 L 585.78125 21.359375 L 500.464844 21.359375 L 500.464844 26.691406 L 495.132812 26.691406 L 495.132812 96.011719 L 500.464844 96.011719 L 500.464844 101.34375 L 585.78125 101.34375 L 585.78125 96.011719 L 591.113281 96.011719 L 591.113281 69.347656 L 575.117188 69.347656 L 575.117188 64.015625 L 585.78125 64.015625 L 585.78125 58.683594 L 591.113281 58.683594 L 591.113281 64.015625 L 596.445312 64.015625 L 596.445312 101.34375 L 591.113281 101.34375 L 591.113281 106.675781 L 495.132812 106.675781 L 495.132812 101.34375 L 489.800781 101.34375 L 489.800781 21.359375 L 495.132812 21.359375 L 495.132812 16.027344 L 591.113281 16.027344 Z M 569.785156 85.347656 L 575.117188 85.347656 L 575.117188 90.679688 L 569.785156 90.679688 Z M 569.785156 42.6875 L 575.117188 42.6875 L 575.117188 48.019531 L 569.785156 48.019531 Z M 553.789062 69.347656 L 559.121094 69.347656 L 559.121094 80.015625 L 532.457031 80.015625 L 532.457031 69.347656 Z M 553.789062 69.347656 " fill-opacity="1" fill-rule="nonzero"/></g><path fill="#38b6ff" d="M 22.285156 119.605469 L 575.378906 119.605469 C 582.765625 119.605469 588.753906 125.59375 588.753906 132.980469 L 588.753906 159.730469 C 588.753906 167.117188 582.765625 173.105469 575.378906 173.105469 L 22.285156 173.105469 C 18.738281 173.105469 15.335938 171.695312 12.828125 169.1875 C 10.320312 166.679688 8.910156 163.277344 8.910156 159.730469 L 8.910156 132.980469 C 8.910156 125.59375 14.898438 119.605469 22.285156 119.605469 Z M 22.285156 119.605469 " fill-opacity="1" fill-rule="nonzero"/><g fill="#f6f4da" fill-opacity="1"><g transform="translate(24.112254, 155.707472)"><g><path d="M 33.171875 -24.921875 L 29 -24.921875 L 29 -22.1875 L 31.609375 -22.1875 L 31.609375 -15.15625 L 33.140625 -15.15625 L 33.140625 -14.25 L 29.9375 -14.25 L 29.9375 -9.765625 L 28.796875 -9.765625 L 28.796875 -7.03125 L 32.375 -7.03125 L 32.375 -4.859375 C 32.375 -4.484375 32.359375 -4.125 32.328125 -3.78125 C 32.304688 -3.4375 32.269531 -3.125 32.21875 -2.84375 L 29.140625 -2.84375 C 29.117188 -2.664062 29.082031 -2.5 29.03125 -2.34375 C 28.976562 -2.195312 28.925781 -2.0625 28.875 -1.9375 L 29.296875 -1.9375 C 29.242188 -1.757812 29.1875 -1.597656 29.125 -1.453125 C 29.0625 -1.316406 28.976562 -1.1875 28.875 -1.0625 C 28.34375 -0.332031 27.519531 0.03125 26.40625 0.03125 L 23.640625 0.03125 C 23.128906 0.03125 22.695312 -0.00390625 22.34375 -0.078125 C 22.164062 -0.128906 21.988281 -0.1875 21.8125 -0.25 C 21.632812 -0.3125 21.46875 -0.394531 21.3125 -0.5 C 21.007812 -0.675781 20.734375 -0.953125 20.484375 -1.328125 C 20.429688 -1.398438 20.363281 -1.492188 20.28125 -1.609375 C 20.207031 -1.722656 20.132812 -1.832031 20.0625 -1.9375 L 17.9375 -1.9375 C 17.863281 -2.0625 17.78125 -2.1875 17.6875 -2.3125 C 17.601562 -2.445312 17.507812 -2.585938 17.40625 -2.734375 L 17.328125 -2.84375 L 22.234375 -2.84375 L 19.875 -7.03125 L 16.296875 -7.03125 L 14.78125 -9.765625 L 15.921875 -9.765625 L 13.40625 -14.25 L 15.890625 -14.25 L 15.359375 -15.15625 L 14.546875 -15.15625 L 10.609375 -22.1875 L 9.234375 -22.1875 L 9.234375 -15.15625 L 12.015625 -15.15625 L 12.015625 -14.25 L 7.5625 -14.25 L 7.5625 -9.765625 L 9.6875 -9.765625 L 9.6875 -2.84375 L 7.03125 -2.84375 L 7.03125 -1.9375 L 10.109375 -1.9375 L 10.109375 -1.296875 C 10.109375 -0.710938 9.96875 -0.34375 9.6875 -0.1875 C 9.40625 -0.0390625 9.191406 0.03125 9.046875 0.03125 L 5.65625 0.03125 C 5.476562 0.03125 5.25 -0.0390625 4.96875 -0.1875 C 4.695312 -0.34375 4.5625 -0.710938 4.5625 -1.296875 L 4.5625 -1.9375 L 1.484375 -1.9375 L 1.484375 -2.84375 L 4.140625 -2.84375 L 4.140625 -7.03125 L 0.765625 -7.03125 L 0.765625 -9.765625 L 2.015625 -9.765625 L 2.015625 -14.25 L 1.296875 -14.25 L 1.296875 -15.15625 L 3.6875 -15.15625 L 3.6875 -22.1875 L 1.0625 -22.1875 L 1.0625 -24.921875 L 3.421875 -24.921875 L 3.421875 -26.40625 C 3.421875 -26.488281 3.421875 -26.5625 3.421875 -26.625 C 3.421875 -26.6875 3.421875 -26.753906 3.421875 -26.828125 L 1.25 -26.828125 C 1.28125 -27.410156 1.328125 -27.925781 1.390625 -28.375 C 1.453125 -28.832031 1.546875 -29.226562 1.671875 -29.5625 L 4.484375 -29.5625 C 4.609375 -29.863281 4.734375 -30.09375 4.859375 -30.25 C 5.421875 -30.957031 6.242188 -31.3125 7.328125 -31.3125 L 10.140625 -31.3125 C 10.421875 -31.3125 10.675781 -31.304688 10.90625 -31.296875 C 11.132812 -31.285156 11.335938 -31.265625 11.515625 -31.234375 C 11.890625 -31.160156 12.234375 -31.007812 12.546875 -30.78125 C 12.796875 -30.601562 13.070312 -30.3125 13.375 -29.90625 C 13.425781 -29.851562 13.46875 -29.796875 13.5 -29.734375 C 13.539062 -29.671875 13.578125 -29.613281 13.609375 -29.5625 L 10.796875 -29.5625 C 10.890625 -29.414062 10.976562 -29.257812 11.0625 -29.09375 C 11.15625 -28.925781 11.253906 -28.738281 11.359375 -28.53125 L 12.34375 -26.828125 L 14.515625 -26.828125 L 15.578125 -24.921875 L 13.21875 -24.921875 L 14.78125 -22.1875 L 17.40625 -22.1875 L 21.359375 -15.15625 L 22.15625 -15.15625 L 22.640625 -14.25 L 20.171875 -14.25 L 22.6875 -9.765625 L 21.546875 -9.765625 L 22.984375 -7.1875 C 23.035156 -7.101562 23.078125 -7.0625 23.109375 -7.0625 L 23.296875 -7.0625 C 23.296875 -7.09375 23.296875 -7.109375 23.296875 -7.109375 C 23.296875 -7.109375 23.296875 -7.117188 23.296875 -7.140625 L 23.296875 -9.765625 L 24.4375 -9.765625 L 24.4375 -14.25 L 24.125 -14.25 L 24.125 -15.15625 L 26.140625 -15.15625 L 26.140625 -22.1875 L 20.40625 -22.1875 L 20.40625 -24.921875 L 25.84375 -24.921875 L 25.84375 -26.828125 L 23.671875 -26.828125 L 23.671875 -29.5625 L 26.484375 -29.5625 L 26.484375 -29.984375 C 26.484375 -30.585938 26.625 -30.957031 26.90625 -31.09375 C 27.1875 -31.238281 27.398438 -31.3125 27.546875 -31.3125 L 30.9375 -31.3125 C 31.113281 -31.3125 31.332031 -31.238281 31.59375 -31.09375 C 31.863281 -30.957031 32 -30.585938 32 -29.984375 L 32 -29.5625 L 29.1875 -29.5625 L 29.1875 -26.828125 L 33.171875 -26.828125 Z M 19.765625 -28.421875 L 19.765625 -28.921875 L 14.21875 -28.921875 L 14.21875 -28.421875 Z M 16.984375 -4.40625 L 16.984375 -4.828125 L 11.671875 -4.828125 L 11.671875 -4.40625 Z M 22.84375 -25.765625 L 22.84375 -26.1875 L 17.515625 -26.1875 L 17.515625 -25.765625 Z M 22.84375 -25.765625 "/></g></g></g><g fill="#f6f4da" fill-opacity="1"><g transform="translate(60.052119, 155.707472)"><g><path d="M 32.265625 -17.40625 L 30.203125 -17.40625 L 30.203125 -16.484375 L 31.609375 -16.484375 L 31.609375 -12.015625 L 32.265625 -12.015625 L 32.265625 -11.890625 C 32.265625 -10.953125 32.222656 -10.078125 32.140625 -9.265625 L 31.015625 -9.265625 C 30.984375 -8.734375 30.925781 -8.238281 30.84375 -7.78125 C 30.769531 -7.332031 30.6875 -6.890625 30.59375 -6.453125 C 30.5625 -6.203125 30.507812 -5.960938 30.4375 -5.734375 C 30.363281 -5.503906 30.285156 -5.273438 30.203125 -5.046875 L 28.734375 -5.046875 C 28.679688 -4.898438 28.625 -4.75 28.5625 -4.59375 C 28.5 -4.445312 28.425781 -4.296875 28.34375 -4.140625 L 30.859375 -4.140625 C 30.578125 -3.585938 30.285156 -3.109375 29.984375 -2.703125 C 29.578125 -2.210938 29.109375 -1.78125 28.578125 -1.40625 L 26.53125 -1.40625 C 26.269531 -1.25 26.015625 -1.101562 25.765625 -0.96875 C 25.515625 -0.832031 25.25 -0.710938 24.96875 -0.609375 C 23.75 -0.179688 22.316406 0.03125 20.671875 0.03125 L 11.40625 0.03125 C 9.726562 0.03125 8.304688 -0.179688 7.140625 -0.609375 C 6.859375 -0.710938 6.582031 -0.832031 6.3125 -0.96875 C 6.050781 -1.101562 5.8125 -1.25 5.59375 -1.40625 L 7.640625 -1.40625 C 7.078125 -1.78125 6.609375 -2.222656 6.234375 -2.734375 C 6.078125 -2.941406 5.929688 -3.164062 5.796875 -3.40625 C 5.660156 -3.644531 5.523438 -3.890625 5.390625 -4.140625 L 1.90625 -4.140625 C 1.820312 -4.296875 1.75 -4.445312 1.6875 -4.59375 C 1.625 -4.75 1.566406 -4.898438 1.515625 -5.046875 L 3.984375 -5.046875 C 3.910156 -5.273438 3.84375 -5.503906 3.78125 -5.734375 C 3.71875 -5.960938 3.660156 -6.203125 3.609375 -6.453125 C 3.503906 -6.859375 3.421875 -7.296875 3.359375 -7.765625 C 3.296875 -8.234375 3.238281 -8.734375 3.1875 -9.265625 L 2.015625 -9.265625 C 1.941406 -10.078125 1.90625 -10.953125 1.90625 -11.890625 L 1.90625 -12.015625 L 3.265625 -12.015625 L 3.265625 -16.484375 L 1.484375 -16.484375 L 1.484375 -17.40625 L 4.21875 -17.40625 L 4.21875 -19.421875 C 4.21875 -21.347656 4.367188 -23.003906 4.671875 -24.390625 L 1.90625 -24.390625 C 1.925781 -24.472656 1.9375 -24.550781 1.9375 -24.625 C 1.9375 -24.695312 1.945312 -24.757812 1.96875 -24.8125 C 2.144531 -25.675781 2.414062 -26.445312 2.78125 -27.125 L 4.5625 -27.125 C 4.789062 -27.664062 5.066406 -28.132812 5.390625 -28.53125 C 5.441406 -28.632812 5.507812 -28.722656 5.59375 -28.796875 C 5.6875 -28.878906 5.773438 -28.957031 5.859375 -29.03125 L 7.9375 -29.03125 C 8.625 -29.738281 9.445312 -30.285156 10.40625 -30.671875 C 11.625 -31.097656 13.054688 -31.3125 14.703125 -31.3125 L 23.9375 -31.3125 C 25.582031 -31.3125 27.015625 -31.097656 28.234375 -30.671875 C 29.242188 -30.285156 30.078125 -29.738281 30.734375 -29.03125 L 28.65625 -29.03125 C 28.726562 -28.957031 28.800781 -28.878906 28.875 -28.796875 C 28.957031 -28.722656 29.035156 -28.632812 29.109375 -28.53125 C 29.441406 -28.132812 29.71875 -27.664062 29.9375 -27.125 L 28.203125 -27.125 C 28.554688 -26.445312 28.820312 -25.675781 29 -24.8125 C 29.019531 -24.757812 29.03125 -24.695312 29.03125 -24.625 C 29.03125 -24.550781 29.039062 -24.472656 29.0625 -24.390625 L 31.84375 -24.390625 C 31.96875 -23.679688 32.066406 -22.914062 32.140625 -22.09375 C 32.222656 -21.269531 32.265625 -20.378906 32.265625 -19.421875 Z M 24.546875 -16.484375 L 23.59375 -16.484375 L 23.59375 -17.40625 L 26.59375 -17.40625 L 26.59375 -20.0625 C 26.59375 -20.625 26.582031 -21.140625 26.5625 -21.609375 C 26.539062 -22.078125 26.488281 -22.5 26.40625 -22.875 C 26.28125 -23.476562 26.101562 -23.984375 25.875 -24.390625 L 23.109375 -24.390625 C 23.078125 -24.441406 23.054688 -24.476562 23.046875 -24.5 C 23.035156 -24.53125 23.015625 -24.5625 22.984375 -24.59375 C 22.734375 -24.945312 22.367188 -25.222656 21.890625 -25.421875 C 21.640625 -25.492188 21.347656 -25.554688 21.015625 -25.609375 C 20.679688 -25.660156 20.3125 -25.6875 19.90625 -25.6875 L 11.015625 -25.6875 C 10.609375 -25.6875 10.25 -25.660156 9.9375 -25.609375 C 9.625 -25.554688 9.335938 -25.492188 9.078125 -25.421875 C 8.578125 -25.222656 8.195312 -24.945312 7.9375 -24.59375 C 7.914062 -24.5625 7.894531 -24.53125 7.875 -24.5 C 7.863281 -24.476562 7.847656 -24.441406 7.828125 -24.390625 L 10.609375 -24.390625 C 10.347656 -23.984375 10.164062 -23.476562 10.0625 -22.875 C 9.988281 -22.5 9.9375 -22.078125 9.90625 -21.609375 C 9.882812 -21.140625 9.875 -20.625 9.875 -20.0625 L 9.875 -17.40625 L 17.4375 -17.40625 L 17.4375 -16.484375 L 8.890625 -16.484375 L 8.890625 -12.015625 L 7.53125 -12.015625 L 7.53125 -11.203125 C 7.53125 -10.492188 7.566406 -9.847656 7.640625 -9.265625 L 8.8125 -9.265625 C 8.84375 -9.117188 8.863281 -8.96875 8.875 -8.8125 C 8.882812 -8.664062 8.90625 -8.523438 8.9375 -8.390625 C 9.0625 -7.660156 9.273438 -7.101562 9.578125 -6.71875 C 9.828125 -6.320312 10.191406 -6.046875 10.671875 -5.890625 C 11.179688 -5.710938 11.84375 -5.625 12.65625 -5.625 L 21.546875 -5.625 C 22.378906 -5.625 23.023438 -5.710938 23.484375 -5.890625 C 23.992188 -6.046875 24.375 -6.320312 24.625 -6.71875 C 24.78125 -6.925781 24.90625 -7.175781 25 -7.46875 C 25.101562 -7.757812 25.191406 -8.066406 25.265625 -8.390625 C 25.296875 -8.523438 25.316406 -8.664062 25.328125 -8.8125 C 25.335938 -8.96875 25.359375 -9.117188 25.390625 -9.265625 L 26.53125 -9.265625 C 26.550781 -9.546875 26.566406 -9.847656 26.578125 -10.171875 C 26.585938 -10.503906 26.59375 -10.847656 26.59375 -11.203125 L 26.59375 -12.015625 L 24.546875 -12.015625 Z M 22.375 -9.578125 L 22.375 -10.0625 L 16.828125 -10.0625 L 16.828125 -9.578125 Z M 15.125 -7.71875 L 15.125 -7.984375 L 11.515625 -7.984375 L 11.515625 -7.71875 Z M 22.375 -22 L 22.375 -22.71875 L 15.15625 -22.71875 L 15.15625 -22 Z M 15.890625 -12.6875 L 15.890625 -13.078125 L 10.5625 -13.078125 L 10.5625 -12.6875 Z M 15.890625 -12.6875 "/></g></g></g><g fill="#f6f4da" fill-opacity="1"><g transform="translate(96.029969, 155.707472)"><g/></g></g><g fill="#f6f4da" fill-opacity="1"><g transform="translate(117.45712, 155.707472)"><g><path d="M 28.046875 -21.203125 L 30.28125 -21.203125 C 30.257812 -20.722656 30.21875 -20.253906 30.15625 -19.796875 C 30.09375 -19.335938 30.019531 -18.894531 29.9375 -18.46875 L 28.84375 -18.46875 C 28.6875 -17.863281 28.5 -17.300781 28.28125 -16.78125 C 28.070312 -16.257812 27.828125 -15.785156 27.546875 -15.359375 C 27.347656 -15.097656 27.128906 -14.851562 26.890625 -14.625 C 26.648438 -14.394531 26.390625 -14.179688 26.109375 -13.984375 L 24.890625 -13.984375 C 24.203125 -13.554688 23.390625 -13.253906 22.453125 -13.078125 L 25.15625 -13.078125 C 24.625 -12.992188 24.039062 -12.953125 23.40625 -12.953125 L 10.40625 -12.921875 L 10.40625 -6.078125 L 12.125 -6.078125 L 12.125 -3.34375 L 8.9375 -3.34375 L 8.9375 -1.4375 L 9.84375 -1.4375 L 9.84375 -1.296875 C 9.84375 -0.710938 9.707031 -0.34375 9.4375 -0.1875 C 9.175781 -0.0390625 8.957031 0.03125 8.78125 0.03125 L 5.3125 0.03125 C 5.132812 0.03125 4.90625 -0.0390625 4.625 -0.1875 C 4.351562 -0.34375 4.21875 -0.710938 4.21875 -1.296875 L 4.21875 -1.4375 L -0.53125 -1.4375 L -0.53125 -3.34375 L 3.765625 -3.34375 L 3.765625 -6.078125 L 4.78125 -6.078125 L 4.78125 -13.078125 L 0.1875 -13.078125 L 0.1875 -13.984375 L 3.3125 -13.984375 L 3.3125 -17.25 C 3.3125 -17.632812 3.378906 -17.921875 3.515625 -18.109375 C 3.648438 -18.296875 3.796875 -18.414062 3.953125 -18.46875 L 6.390625 -18.46875 C 6.460938 -18.519531 6.535156 -18.546875 6.609375 -18.546875 C 6.679688 -18.546875 6.742188 -18.546875 6.796875 -18.546875 L 23.375 -18.546875 C 24.332031 -18.546875 25.003906 -18.820312 25.390625 -19.375 C 25.691406 -19.8125 25.878906 -20.421875 25.953125 -21.203125 L 22.375 -21.203125 C 22.40625 -21.359375 22.421875 -21.503906 22.421875 -21.640625 C 22.421875 -21.773438 22.421875 -21.929688 22.421875 -22.109375 C 22.421875 -23.378906 22.21875 -24.296875 21.8125 -24.859375 C 21.6875 -25.054688 21.457031 -25.242188 21.125 -25.421875 L 24.28125 -25.421875 C 24.101562 -25.492188 23.90625 -25.554688 23.6875 -25.609375 C 23.476562 -25.660156 23.234375 -25.6875 22.953125 -25.6875 L 6.421875 -25.6875 C 6.296875 -25.6875 6.128906 -25.722656 5.921875 -25.796875 C 5.722656 -25.878906 5.5625 -26.054688 5.4375 -26.328125 L 1.515625 -26.328125 C 1.441406 -26.484375 1.40625 -26.703125 1.40625 -26.984375 L 1.40625 -29.0625 L 4.21875 -29.0625 L 4.21875 -29.984375 C 4.21875 -30.585938 4.351562 -30.957031 4.625 -31.09375 C 4.90625 -31.238281 5.132812 -31.3125 5.3125 -31.3125 L 22.84375 -31.3125 C 25.300781 -31.3125 27.125 -30.5625 28.3125 -29.0625 L 25.453125 -29.0625 C 25.535156 -28.988281 25.585938 -28.925781 25.609375 -28.875 C 25.890625 -28.550781 26.125 -28.171875 26.3125 -27.734375 C 26.5 -27.304688 26.660156 -26.835938 26.796875 -26.328125 L 29.21875 -26.328125 C 29.269531 -26.179688 29.304688 -26.03125 29.328125 -25.875 C 29.359375 -25.726562 29.382812 -25.578125 29.40625 -25.421875 L 27.78125 -25.421875 C 27.882812 -24.941406 27.953125 -24.421875 27.984375 -23.859375 C 28.023438 -23.304688 28.046875 -22.722656 28.046875 -22.109375 C 28.046875 -21.960938 28.046875 -21.8125 28.046875 -21.65625 C 28.046875 -21.507812 28.046875 -21.359375 28.046875 -21.203125 Z M 12.46875 -22.84375 L 12.46875 -23.828125 L 4.453125 -23.828125 L 4.453125 -22.84375 Z M 19.5625 -20.4375 L 19.5625 -21.203125 L 13.453125 -21.203125 L 13.453125 -20.4375 Z M 22.84375 -8.015625 L 22.84375 -8.78125 L 13.140625 -8.78125 L 13.140625 -8.015625 Z M 17.4375 -10.875 L 17.4375 -11.359375 L 10.40625 -11.359375 L 10.40625 -10.875 Z M 17.4375 -10.875 "/></g></g></g><g fill="#f6f4da" fill-opacity="1"><g transform="translate(151.30745, 155.707472)"><g><path d="M 36.5625 -1.40625 C 36.65625 -1.101562 36.691406 -0.847656 36.671875 -0.640625 L 33.625 -0.640625 C 33.625 -0.617188 33.625 -0.59375 33.625 -0.5625 C 33.625 -0.539062 33.625 -0.53125 33.625 -0.53125 C 33.601562 -0.425781 33.535156 -0.304688 33.421875 -0.171875 C 33.304688 -0.0351562 33.097656 0.03125 32.796875 0.03125 L 28.734375 0.03125 C 28.296875 0.03125 27.953125 -0.191406 27.703125 -0.640625 L 30.734375 -0.640625 C 30.734375 -0.640625 30.710938 -0.691406 30.671875 -0.796875 L 30.4375 -1.40625 L 27.46875 -1.40625 L 26.53125 -3.796875 L 28.734375 -3.796875 L 26.671875 -8.859375 L 23.671875 -8.859375 L 22.71875 -11.25 L 24.734375 -11.25 L 22.34375 -17.296875 L 24.09375 -17.296875 L 23.78125 -18.09375 L 20.96875 -18.09375 L 19.421875 -21.921875 L 21.28125 -21.921875 L 20.328125 -24.3125 L 20.109375 -24.3125 C 20.109375 -24.3125 20.09375 -24.300781 20.0625 -24.28125 L 19.15625 -21.921875 L 17.296875 -21.921875 L 15.765625 -18.09375 L 18.578125 -18.09375 L 18.234375 -17.296875 L 16.484375 -17.296875 L 15.234375 -14.09375 L 18.890625 -14.09375 L 18.890625 -13.6875 L 15.09375 -13.6875 L 14.40625 -11.96875 L 19.078125 -11.96875 C 19.585938 -11.96875 19.953125 -11.726562 20.171875 -11.25 L 18.15625 -11.25 C 18.15625 -11.25 18.15625 -11.238281 18.15625 -11.21875 C 18.15625 -11.207031 18.15625 -11.203125 18.15625 -11.203125 L 19.109375 -8.859375 L 22.109375 -8.859375 L 22.53125 -7.828125 C 22.65625 -7.398438 22.601562 -7.03125 22.375 -6.71875 C 22.175781 -6.363281 21.847656 -6.1875 21.390625 -6.1875 L 13.078125 -6.1875 L 12.125 -3.796875 L 9.921875 -3.796875 L 8.96875 -1.40625 L 11.9375 -1.40625 L 11.671875 -0.765625 C 11.671875 -0.734375 11.644531 -0.691406 11.59375 -0.640625 L 8.546875 -0.640625 C 8.347656 -0.191406 8.019531 0.03125 7.5625 0.03125 L 3.375 0.03125 C 3.070312 0.03125 2.863281 -0.0351562 2.75 -0.171875 C 2.632812 -0.304688 2.566406 -0.425781 2.546875 -0.53125 C 2.546875 -0.582031 2.535156 -0.617188 2.515625 -0.640625 L 5.546875 -0.640625 C 5.523438 -0.847656 5.5625 -1.101562 5.65625 -1.40625 L 2.703125 -1.40625 C 2.703125 -1.425781 2.707031 -1.4375 2.71875 -1.4375 C 2.726562 -1.4375 2.734375 -1.4375 2.734375 -1.4375 L 3.640625 -3.796875 L 5.859375 -3.796875 L 7.90625 -8.859375 L 4.90625 -8.859375 L 5.859375 -11.25 L 7.859375 -11.25 L 10.296875 -17.296875 L 12.078125 -17.296875 L 12.390625 -18.09375 L 9.578125 -18.09375 L 11.140625 -21.921875 L 13 -21.921875 L 13.953125 -24.3125 L 11.140625 -24.3125 L 12.546875 -27.78125 C 12.546875 -27.800781 12.550781 -27.820312 12.5625 -27.84375 C 12.570312 -27.875 12.578125 -27.90625 12.578125 -27.9375 L 10.984375 -27.9375 C 11.035156 -28.0625 11.09375 -28.191406 11.15625 -28.328125 C 11.21875 -28.460938 11.273438 -28.597656 11.328125 -28.734375 L 16.078125 -28.734375 C 16.273438 -29.160156 16.472656 -29.523438 16.671875 -29.828125 C 16.878906 -30.128906 17.097656 -30.367188 17.328125 -30.546875 C 17.398438 -30.597656 17.476562 -30.660156 17.5625 -30.734375 C 17.65625 -30.816406 17.753906 -30.882812 17.859375 -30.9375 C 17.910156 -30.957031 17.960938 -30.976562 18.015625 -31 C 18.066406 -31.03125 18.101562 -31.054688 18.125 -31.078125 L 17.03125 -31.078125 C 17.738281 -31.515625 18.519531 -31.734375 19.375 -31.734375 C 20.238281 -31.734375 21.023438 -31.515625 21.734375 -31.078125 L 22.875 -31.078125 C 23.832031 -30.523438 24.503906 -29.742188 24.890625 -28.734375 L 20.140625 -28.734375 C 20.160156 -28.648438 20.179688 -28.578125 20.203125 -28.515625 C 20.234375 -28.453125 20.265625 -28.394531 20.296875 -28.34375 C 20.316406 -28.269531 20.378906 -28.132812 20.484375 -27.9375 L 22.109375 -27.9375 C 22.109375 -27.90625 22.113281 -27.875 22.125 -27.84375 C 22.144531 -27.820312 22.15625 -27.800781 22.15625 -27.78125 L 23.5625 -24.3125 L 26.375 -24.3125 L 27.359375 -21.921875 L 25.5 -21.921875 L 27.0625 -18.09375 L 29.875 -18.09375 L 30.171875 -17.296875 L 28.421875 -17.296875 L 30.859375 -11.25 L 28.84375 -11.25 L 29.796875 -8.859375 L 32.796875 -8.859375 L 34.84375 -3.796875 L 32.6875 -3.796875 L 33.625 -1.4375 C 33.625 -1.4375 33.625 -1.425781 33.625 -1.40625 Z M 17.359375 -4.78125 L 17.359375 -4.40625 L 23.75 -4.40625 L 23.75 -4.78125 Z M 10.75 -2.703125 L 10.75 -2.28125 L 14.9375 -2.28125 L 14.9375 -2.703125 Z M 10.75 -2.703125 "/></g></g></g><g fill="#f6f4da" fill-opacity="1"><g transform="translate(190.514571, 155.707472)"><g><path d="M 14.546875 -24.3125 L 14.546875 -23.90625 L 11.015625 -23.90625 L 11.015625 -24.3125 Z M 4.0625 -4.109375 L 4.0625 -3.6875 L 1.515625 -3.6875 L 1.515625 -4.109375 Z M 10.265625 -22.421875 L 8.8125 -22.421875 L 8.8125 -20.03125 L 11.59375 -20.03125 L 11.59375 -16.1875 L 13.03125 -16.1875 L 13.03125 -15.390625 L 9.578125 -15.390625 L 9.578125 -9.34375 L 10.90625 -9.34375 L 10.90625 -6.953125 L 9.578125 -6.953125 L 9.578125 -5.3125 L 11.25 -5.3125 L 11.25 -2.96875 L 9.796875 -2.96875 L 9.796875 -1.328125 C 9.796875 -0.742188 9.65625 -0.378906 9.375 -0.234375 C 9.101562 -0.0976562 8.890625 -0.03125 8.734375 -0.03125 L 5.25 -0.03125 C 5.070312 -0.03125 4.84375 -0.0976562 4.5625 -0.234375 C 4.28125 -0.378906 4.140625 -0.742188 4.140625 -1.328125 L 4.140625 -2.96875 L 5.625 -2.96875 L 5.625 -5.3125 L 3.953125 -5.3125 L 3.953125 -6.953125 L 5.28125 -6.953125 L 5.28125 -9.34375 L 3.953125 -9.34375 L 3.953125 -15.390625 L 2.703125 -15.390625 L 2.703125 -16.1875 L 5.921875 -16.1875 L 5.921875 -20.03125 L 3.15625 -20.03125 L 3.15625 -22.421875 L 4.640625 -22.421875 L 4.640625 -26.03125 L 6.34375 -26.03125 L 6.34375 -26.828125 L 3.53125 -26.828125 L 3.53125 -29.1875 L 5.515625 -29.1875 L 5.515625 -30.0625 C 5.515625 -30.644531 5.675781 -31.003906 6 -31.140625 C 6.332031 -31.273438 6.585938 -31.34375 6.765625 -31.34375 L 10.796875 -31.34375 C 10.992188 -31.34375 11.242188 -31.273438 11.546875 -31.140625 C 11.859375 -31.003906 12.015625 -30.644531 12.015625 -30.0625 L 12.015625 -29.1875 L 9.15625 -29.1875 L 9.15625 -26.828125 L 14.0625 -26.828125 L 14.0625 -26.03125 L 10.265625 -26.03125 Z M 5.09375 -33.359375 C 4.914062 -33.585938 4.898438 -33.90625 5.046875 -34.3125 L 6.453125 -37.546875 L 7.859375 -37.546875 L 8.890625 -39.90625 L 7.484375 -39.90625 L 7.75 -40.46875 C 7.957031 -40.925781 8.179688 -41.21875 8.421875 -41.34375 C 8.660156 -41.46875 8.878906 -41.53125 9.078125 -41.53125 L 9.84375 -41.53125 C 10.039062 -41.53125 10.203125 -41.492188 10.328125 -41.421875 C 10.460938 -41.347656 10.566406 -41.269531 10.640625 -41.1875 C 10.691406 -41.09375 10.734375 -40.96875 10.765625 -40.8125 C 10.804688 -40.65625 10.765625 -40.453125 10.640625 -40.203125 L 10.484375 -39.90625 L 12.578125 -39.90625 L 11.40625 -37.546875 L 10 -37.546875 L 8.25 -34.015625 C 8.125 -33.734375 7.972656 -33.488281 7.796875 -33.28125 C 7.535156 -33.082031 7.242188 -32.984375 6.921875 -32.984375 L 5.890625 -32.984375 C 5.660156 -32.984375 5.484375 -33.019531 5.359375 -33.09375 C 5.234375 -33.175781 5.144531 -33.265625 5.09375 -33.359375 Z M 5.09375 -33.359375 "/></g></g></g><g fill="#f6f4da" fill-opacity="1"><g transform="translate(206.432967, 155.707472)"><g><path d="M 27.671875 -10.671875 L 27.671875 -7.484375 C 27.671875 -7.253906 27.660156 -7.03125 27.640625 -6.8125 C 27.628906 -6.601562 27.613281 -6.394531 27.59375 -6.1875 L 30.40625 -6.1875 C 30.375 -6.039062 30.351562 -5.890625 30.34375 -5.734375 C 30.332031 -5.585938 30.3125 -5.4375 30.28125 -5.28125 L 25.234375 -5.28125 C 25.003906 -4.007812 24.570312 -2.957031 23.9375 -2.125 C 23.832031 -1.945312 23.707031 -1.785156 23.5625 -1.640625 L 28.15625 -1.640625 C 27.164062 -0.546875 25.757812 0 23.9375 0 L 6.765625 0 C 6.609375 0 6.390625 -0.0664062 6.109375 -0.203125 C 5.835938 -0.347656 5.703125 -0.710938 5.703125 -1.296875 L 5.703125 -1.640625 L 1.109375 -1.640625 L 1.109375 -4.328125 C 1.109375 -4.734375 1.195312 -5.050781 1.375 -5.28125 L 6.421875 -5.28125 C 6.546875 -5.4375 6.691406 -5.53125 6.859375 -5.5625 C 7.023438 -5.601562 7.160156 -5.625 7.265625 -5.625 L 23.484375 -5.625 C 23.816406 -5.625 24.050781 -5.679688 24.1875 -5.796875 C 24.320312 -5.910156 24.414062 -6.019531 24.46875 -6.125 C 24.5 -6.144531 24.515625 -6.164062 24.515625 -6.1875 L 21.734375 -6.1875 C 21.941406 -6.59375 22.046875 -7.101562 22.046875 -7.71875 L 22.046875 -10.671875 L 25.3125 -10.671875 L 25.3125 -10.984375 C 25.3125 -11.921875 25.15625 -12.503906 24.84375 -12.734375 C 24.539062 -12.960938 24.253906 -13.078125 23.984375 -13.078125 L 12.578125 -13.078125 C 12.171875 -13.078125 11.75 -13.097656 11.3125 -13.140625 C 10.882812 -13.191406 10.46875 -13.28125 10.0625 -13.40625 L 5.359375 -13.40625 C 4.972656 -13.539062 4.609375 -13.71875 4.265625 -13.9375 C 3.929688 -14.164062 3.625 -14.472656 3.34375 -14.859375 C 2.863281 -15.515625 2.484375 -16.425781 2.203125 -17.59375 L 6.609375 -17.59375 C 6.585938 -17.75 6.5625 -17.898438 6.53125 -18.046875 C 6.507812 -18.203125 6.472656 -18.351562 6.421875 -18.5 L 2.703125 -18.5 C 2.648438 -18.882812 2.609375 -19.28125 2.578125 -19.6875 C 2.554688 -20.09375 2.546875 -20.507812 2.546875 -20.9375 L 2.546875 -21.234375 L 5.09375 -21.234375 L 5.09375 -23.828125 C 5.09375 -23.878906 5.09375 -23.910156 5.09375 -23.921875 C 5.09375 -23.929688 5.09375 -23.953125 5.09375 -23.984375 L 4.40625 -23.984375 C 4.40625 -23.984375 4.40625 -23.992188 4.40625 -24.015625 L 2.84375 -24.015625 C 2.84375 -24.929688 2.945312 -25.816406 3.15625 -26.671875 L 6.765625 -26.671875 C 6.992188 -27.640625 7.359375 -28.488281 7.859375 -29.21875 C 7.910156 -29.269531 7.945312 -29.304688 7.96875 -29.328125 C 8 -29.359375 8.03125 -29.382812 8.0625 -29.40625 L 3.453125 -29.40625 C 4.441406 -30.675781 5.910156 -31.3125 7.859375 -31.3125 L 24.25 -31.3125 C 24.425781 -31.3125 24.644531 -31.238281 24.90625 -31.09375 C 25.175781 -30.957031 25.3125 -30.597656 25.3125 -30.015625 L 25.3125 -29.40625 L 29.90625 -29.40625 L 29.90625 -26.984375 C 29.90625 -26.929688 29.90625 -26.878906 29.90625 -26.828125 C 29.90625 -26.773438 29.90625 -26.722656 29.90625 -26.671875 L 26.296875 -26.671875 C 26.242188 -26.242188 26.085938 -25.972656 25.828125 -25.859375 C 25.578125 -25.742188 25.390625 -25.6875 25.265625 -25.6875 L 9.796875 -25.6875 C 9.472656 -25.6875 9.238281 -25.632812 9.09375 -25.53125 C 8.957031 -25.4375 8.863281 -25.320312 8.8125 -25.1875 C 8.613281 -24.882812 8.5 -24.492188 8.46875 -24.015625 L 10.0625 -24.015625 C 10.0625 -23.992188 10.0625 -23.984375 10.0625 -23.984375 L 13.140625 -23.984375 C 13.140625 -23.929688 13.140625 -23.863281 13.140625 -23.78125 C 13.140625 -23.707031 13.140625 -23.644531 13.140625 -23.59375 L 13.140625 -21.234375 L 8.171875 -21.234375 L 8.171875 -20.78125 C 8.171875 -19.84375 8.320312 -19.257812 8.625 -19.03125 C 8.925781 -18.8125 9.21875 -18.703125 9.5 -18.703125 L 20.859375 -18.703125 C 21.140625 -18.703125 21.410156 -18.679688 21.671875 -18.640625 C 21.941406 -18.597656 22.203125 -18.550781 22.453125 -18.5 L 27.96875 -18.5 C 28.695312 -18.351562 29.34375 -18.050781 29.90625 -17.59375 L 23.75 -17.59375 C 23.945312 -17.46875 24.125 -17.320312 24.28125 -17.15625 C 24.4375 -16.988281 24.585938 -16.804688 24.734375 -16.609375 C 25.347656 -15.773438 25.765625 -14.707031 25.984375 -13.40625 L 30.703125 -13.40625 C 30.859375 -12.625 30.9375 -11.765625 30.9375 -10.828125 L 30.9375 -10.671875 Z M 16 -6.875 L 16 -7.859375 L 8.015625 -7.859375 L 8.015625 -6.875 Z M 24.28125 -19.875 L 24.28125 -20.859375 L 18.8125 -20.859375 L 18.8125 -19.875 Z M 18.5 -11.0625 L 18.5 -11.59375 L 11.4375 -11.59375 L 11.4375 -11.0625 Z M 22 -23.75 L 22 -24.25 L 14.96875 -24.25 L 14.96875 -23.75 Z M 22 -23.75 "/></g></g></g><g fill="#f6f4da" fill-opacity="1"><g transform="translate(238.763649, 155.707472)"><g/></g></g><g fill="#f6f4da" fill-opacity="1"><g transform="translate(260.1908, 155.707472)"><g><path d="M 9.796875 -25.421875 C 9.296875 -25.265625 8.914062 -24.988281 8.65625 -24.59375 C 8.632812 -24.5625 8.609375 -24.519531 8.578125 -24.46875 C 8.554688 -24.414062 8.519531 -24.363281 8.46875 -24.3125 L 13.34375 -24.3125 C 13.238281 -24.132812 13.144531 -23.925781 13.0625 -23.6875 C 12.988281 -23.445312 12.925781 -23.191406 12.875 -22.921875 C 12.851562 -22.765625 12.828125 -22.609375 12.796875 -22.453125 C 12.773438 -22.304688 12.753906 -22.128906 12.734375 -21.921875 L 8.328125 -21.921875 C 8.296875 -21.671875 8.273438 -21.394531 8.265625 -21.09375 C 8.253906 -20.789062 8.25 -20.460938 8.25 -20.109375 L 8.25 -18.09375 L 18.4375 -18.09375 L 18.4375 -17.296875 L 9 -17.296875 L 9 -11.25 L 11.0625 -11.25 C 11.0625 -10.332031 11.097656 -9.535156 11.171875 -8.859375 L 12.28125 -8.859375 C 12.300781 -8.773438 12.3125 -8.695312 12.3125 -8.625 C 12.3125 -8.550781 12.320312 -8.472656 12.34375 -8.390625 C 12.445312 -7.679688 12.664062 -7.125 13 -6.71875 C 13.25 -6.320312 13.628906 -6.046875 14.140625 -5.890625 C 14.585938 -5.710938 15.234375 -5.625 16.078125 -5.625 L 29.71875 -5.625 C 29.894531 -5.625 30.113281 -5.546875 30.375 -5.390625 C 30.644531 -5.242188 30.78125 -4.878906 30.78125 -4.296875 L 30.78125 -3.796875 L 27.25 -3.796875 L 27.25 -1.40625 L 30.359375 -1.40625 L 30.359375 -1.296875 C 30.359375 -1.171875 30.34375 -1.050781 30.3125 -0.9375 C 30.289062 -0.820312 30.269531 -0.722656 30.25 -0.640625 L 26.453125 -0.640625 C 26.347656 -0.335938 26.191406 -0.148438 25.984375 -0.078125 C 25.785156 -0.00390625 25.625 0.03125 25.5 0.03125 L 11.671875 0.03125 C 9.992188 0.03125 8.570312 -0.179688 7.40625 -0.609375 C 7.382812 -0.609375 7.359375 -0.617188 7.328125 -0.640625 L 11.140625 -0.640625 C 10.859375 -0.742188 10.585938 -0.859375 10.328125 -0.984375 C 10.078125 -1.109375 9.835938 -1.25 9.609375 -1.40625 L 6.5 -1.40625 C 5.96875 -1.8125 5.507812 -2.242188 5.125 -2.703125 C 5.03125 -2.878906 4.925781 -3.054688 4.8125 -3.234375 C 4.695312 -3.410156 4.585938 -3.597656 4.484375 -3.796875 L 7.984375 -3.796875 C 7.578125 -4.503906 7.257812 -5.378906 7.03125 -6.421875 C 6.925781 -6.796875 6.847656 -7.1875 6.796875 -7.59375 C 6.742188 -8 6.695312 -8.421875 6.65625 -8.859375 L 5.546875 -8.859375 C 5.472656 -9.617188 5.4375 -10.414062 5.4375 -11.25 L 3.375 -11.25 C 3.375 -11.351562 3.375 -11.457031 3.375 -11.5625 C 3.375 -11.675781 3.375 -11.785156 3.375 -11.890625 L 3.375 -17.296875 L 6.1875 -17.296875 L 6.1875 -18.09375 L 2.578125 -18.09375 L 2.578125 -19.421875 C 2.578125 -20.304688 2.617188 -21.140625 2.703125 -21.921875 L 7.140625 -21.921875 C 7.191406 -22.359375 7.234375 -22.773438 7.265625 -23.171875 C 7.304688 -23.578125 7.367188 -23.957031 7.453125 -24.3125 L 2.578125 -24.3125 C 2.609375 -24.394531 2.628906 -24.476562 2.640625 -24.5625 C 2.648438 -24.65625 2.671875 -24.738281 2.703125 -24.8125 C 2.953125 -25.976562 3.351562 -27.019531 3.90625 -27.9375 L 10.484375 -27.9375 C 10.609375 -28.15625 10.75 -28.351562 10.90625 -28.53125 C 10.976562 -28.613281 11.03125 -28.679688 11.0625 -28.734375 L 9.609375 -28.734375 C 9.960938 -29.160156 10.367188 -29.535156 10.828125 -29.859375 C 11.285156 -30.191406 11.789062 -30.460938 12.34375 -30.671875 C 12.625 -30.742188 12.894531 -30.816406 13.15625 -30.890625 C 13.425781 -30.972656 13.710938 -31.035156 14.015625 -31.078125 L 7.296875 -31.078125 C 8.109375 -31.234375 8.984375 -31.3125 9.921875 -31.3125 L 23.75 -31.3125 C 23.820312 -31.3125 23.921875 -31.296875 24.046875 -31.265625 C 24.179688 -31.242188 24.296875 -31.179688 24.390625 -31.078125 L 29.40625 -31.078125 C 29.539062 -30.984375 29.644531 -30.851562 29.71875 -30.6875 C 29.789062 -30.519531 29.828125 -30.285156 29.828125 -29.984375 L 29.828125 -28.734375 L 31.28125 -28.734375 L 31.28125 -27.9375 L 26.453125 -27.9375 L 26.453125 -27.0625 C 26.453125 -26.445312 26.316406 -26.0625 26.046875 -25.90625 C 25.785156 -25.757812 25.566406 -25.6875 25.390625 -25.6875 L 11.734375 -25.6875 C 11.359375 -25.6875 11.003906 -25.664062 10.671875 -25.625 C 10.347656 -25.59375 10.054688 -25.523438 9.796875 -25.421875 Z M 19.265625 -8.390625 L 19.265625 -7.984375 L 27.546875 -7.984375 L 27.546875 -8.390625 Z M 11.9375 -20.25 L 11.9375 -19.84375 L 20.25 -19.84375 L 20.25 -20.25 Z M 16.078125 -15.15625 L 16.078125 -14.40625 L 28.421875 -14.40625 L 28.421875 -15.15625 Z M 10.140625 -11.25 L 10.140625 -10.828125 L 14.75 -10.828125 L 14.75 -11.25 Z M 10.140625 -11.25 "/></g></g></g><g fill="#f6f4da" fill-opacity="1"><g transform="translate(292.445513, 155.707472)"><g><path d="M 32.265625 -17.40625 L 30.203125 -17.40625 L 30.203125 -16.484375 L 31.609375 -16.484375 L 31.609375 -12.015625 L 32.265625 -12.015625 L 32.265625 -11.890625 C 32.265625 -10.953125 32.222656 -10.078125 32.140625 -9.265625 L 31.015625 -9.265625 C 30.984375 -8.734375 30.925781 -8.238281 30.84375 -7.78125 C 30.769531 -7.332031 30.6875 -6.890625 30.59375 -6.453125 C 30.5625 -6.203125 30.507812 -5.960938 30.4375 -5.734375 C 30.363281 -5.503906 30.285156 -5.273438 30.203125 -5.046875 L 28.734375 -5.046875 C 28.679688 -4.898438 28.625 -4.75 28.5625 -4.59375 C 28.5 -4.445312 28.425781 -4.296875 28.34375 -4.140625 L 30.859375 -4.140625 C 30.578125 -3.585938 30.285156 -3.109375 29.984375 -2.703125 C 29.578125 -2.210938 29.109375 -1.78125 28.578125 -1.40625 L 26.53125 -1.40625 C 26.269531 -1.25 26.015625 -1.101562 25.765625 -0.96875 C 25.515625 -0.832031 25.25 -0.710938 24.96875 -0.609375 C 23.75 -0.179688 22.316406 0.03125 20.671875 0.03125 L 11.40625 0.03125 C 9.726562 0.03125 8.304688 -0.179688 7.140625 -0.609375 C 6.859375 -0.710938 6.582031 -0.832031 6.3125 -0.96875 C 6.050781 -1.101562 5.8125 -1.25 5.59375 -1.40625 L 7.640625 -1.40625 C 7.078125 -1.78125 6.609375 -2.222656 6.234375 -2.734375 C 6.078125 -2.941406 5.929688 -3.164062 5.796875 -3.40625 C 5.660156 -3.644531 5.523438 -3.890625 5.390625 -4.140625 L 1.90625 -4.140625 C 1.820312 -4.296875 1.75 -4.445312 1.6875 -4.59375 C 1.625 -4.75 1.566406 -4.898438 1.515625 -5.046875 L 3.984375 -5.046875 C 3.910156 -5.273438 3.84375 -5.503906 3.78125 -5.734375 C 3.71875 -5.960938 3.660156 -6.203125 3.609375 -6.453125 C 3.503906 -6.859375 3.421875 -7.296875 3.359375 -7.765625 C 3.296875 -8.234375 3.238281 -8.734375 3.1875 -9.265625 L 2.015625 -9.265625 C 1.941406 -10.078125 1.90625 -10.953125 1.90625 -11.890625 L 1.90625 -12.015625 L 3.265625 -12.015625 L 3.265625 -16.484375 L 1.484375 -16.484375 L 1.484375 -17.40625 L 4.21875 -17.40625 L 4.21875 -19.421875 C 4.21875 -21.347656 4.367188 -23.003906 4.671875 -24.390625 L 1.90625 -24.390625 C 1.925781 -24.472656 1.9375 -24.550781 1.9375 -24.625 C 1.9375 -24.695312 1.945312 -24.757812 1.96875 -24.8125 C 2.144531 -25.675781 2.414062 -26.445312 2.78125 -27.125 L 4.5625 -27.125 C 4.789062 -27.664062 5.066406 -28.132812 5.390625 -28.53125 C 5.441406 -28.632812 5.507812 -28.722656 5.59375 -28.796875 C 5.6875 -28.878906 5.773438 -28.957031 5.859375 -29.03125 L 7.9375 -29.03125 C 8.625 -29.738281 9.445312 -30.285156 10.40625 -30.671875 C 11.625 -31.097656 13.054688 -31.3125 14.703125 -31.3125 L 23.9375 -31.3125 C 25.582031 -31.3125 27.015625 -31.097656 28.234375 -30.671875 C 29.242188 -30.285156 30.078125 -29.738281 30.734375 -29.03125 L 28.65625 -29.03125 C 28.726562 -28.957031 28.800781 -28.878906 28.875 -28.796875 C 28.957031 -28.722656 29.035156 -28.632812 29.109375 -28.53125 C 29.441406 -28.132812 29.71875 -27.664062 29.9375 -27.125 L 28.203125 -27.125 C 28.554688 -26.445312 28.820312 -25.675781 29 -24.8125 C 29.019531 -24.757812 29.03125 -24.695312 29.03125 -24.625 C 29.03125 -24.550781 29.039062 -24.472656 29.0625 -24.390625 L 31.84375 -24.390625 C 31.96875 -23.679688 32.066406 -22.914062 32.140625 -22.09375 C 32.222656 -21.269531 32.265625 -20.378906 32.265625 -19.421875 Z M 24.546875 -16.484375 L 23.59375 -16.484375 L 23.59375 -17.40625 L 26.59375 -17.40625 L 26.59375 -20.0625 C 26.59375 -20.625 26.582031 -21.140625 26.5625 -21.609375 C 26.539062 -22.078125 26.488281 -22.5 26.40625 -22.875 C 26.28125 -23.476562 26.101562 -23.984375 25.875 -24.390625 L 23.109375 -24.390625 C 23.078125 -24.441406 23.054688 -24.476562 23.046875 -24.5 C 23.035156 -24.53125 23.015625 -24.5625 22.984375 -24.59375 C 22.734375 -24.945312 22.367188 -25.222656 21.890625 -25.421875 C 21.640625 -25.492188 21.347656 -25.554688 21.015625 -25.609375 C 20.679688 -25.660156 20.3125 -25.6875 19.90625 -25.6875 L 11.015625 -25.6875 C 10.609375 -25.6875 10.25 -25.660156 9.9375 -25.609375 C 9.625 -25.554688 9.335938 -25.492188 9.078125 -25.421875 C 8.578125 -25.222656 8.195312 -24.945312 7.9375 -24.59375 C 7.914062 -24.5625 7.894531 -24.53125 7.875 -24.5 C 7.863281 -24.476562 7.847656 -24.441406 7.828125 -24.390625 L 10.609375 -24.390625 C 10.347656 -23.984375 10.164062 -23.476562 10.0625 -22.875 C 9.988281 -22.5 9.9375 -22.078125 9.90625 -21.609375 C 9.882812 -21.140625 9.875 -20.625 9.875 -20.0625 L 9.875 -17.40625 L 17.4375 -17.40625 L 17.4375 -16.484375 L 8.890625 -16.484375 L 8.890625 -12.015625 L 7.53125 -12.015625 L 7.53125 -11.203125 C 7.53125 -10.492188 7.566406 -9.847656 7.640625 -9.265625 L 8.8125 -9.265625 C 8.84375 -9.117188 8.863281 -8.96875 8.875 -8.8125 C 8.882812 -8.664062 8.90625 -8.523438 8.9375 -8.390625 C 9.0625 -7.660156 9.273438 -7.101562 9.578125 -6.71875 C 9.828125 -6.320312 10.191406 -6.046875 10.671875 -5.890625 C 11.179688 -5.710938 11.84375 -5.625 12.65625 -5.625 L 21.546875 -5.625 C 22.378906 -5.625 23.023438 -5.710938 23.484375 -5.890625 C 23.992188 -6.046875 24.375 -6.320312 24.625 -6.71875 C 24.78125 -6.925781 24.90625 -7.175781 25 -7.46875 C 25.101562 -7.757812 25.191406 -8.066406 25.265625 -8.390625 C 25.296875 -8.523438 25.316406 -8.664062 25.328125 -8.8125 C 25.335938 -8.96875 25.359375 -9.117188 25.390625 -9.265625 L 26.53125 -9.265625 C 26.550781 -9.546875 26.566406 -9.847656 26.578125 -10.171875 C 26.585938 -10.503906 26.59375 -10.847656 26.59375 -11.203125 L 26.59375 -12.015625 L 24.546875 -12.015625 Z M 22.375 -9.578125 L 22.375 -10.0625 L 16.828125 -10.0625 L 16.828125 -9.578125 Z M 15.125 -7.71875 L 15.125 -7.984375 L 11.515625 -7.984375 L 11.515625 -7.71875 Z M 22.375 -22 L 22.375 -22.71875 L 15.15625 -22.71875 L 15.15625 -22 Z M 15.890625 -12.6875 L 15.890625 -13.078125 L 10.5625 -13.078125 L 10.5625 -12.6875 Z M 15.890625 -12.6875 "/></g></g></g><g fill="#f6f4da" fill-opacity="1"><g transform="translate(328.42335, 155.707472)"><g><path d="M 33.171875 -24.921875 L 29 -24.921875 L 29 -22.1875 L 31.609375 -22.1875 L 31.609375 -15.15625 L 33.140625 -15.15625 L 33.140625 -14.25 L 29.9375 -14.25 L 29.9375 -9.765625 L 28.796875 -9.765625 L 28.796875 -7.03125 L 32.375 -7.03125 L 32.375 -4.859375 C 32.375 -4.484375 32.359375 -4.125 32.328125 -3.78125 C 32.304688 -3.4375 32.269531 -3.125 32.21875 -2.84375 L 29.140625 -2.84375 C 29.117188 -2.664062 29.082031 -2.5 29.03125 -2.34375 C 28.976562 -2.195312 28.925781 -2.0625 28.875 -1.9375 L 29.296875 -1.9375 C 29.242188 -1.757812 29.1875 -1.597656 29.125 -1.453125 C 29.0625 -1.316406 28.976562 -1.1875 28.875 -1.0625 C 28.34375 -0.332031 27.519531 0.03125 26.40625 0.03125 L 23.640625 0.03125 C 23.128906 0.03125 22.695312 -0.00390625 22.34375 -0.078125 C 22.164062 -0.128906 21.988281 -0.1875 21.8125 -0.25 C 21.632812 -0.3125 21.46875 -0.394531 21.3125 -0.5 C 21.007812 -0.675781 20.734375 -0.953125 20.484375 -1.328125 C 20.429688 -1.398438 20.363281 -1.492188 20.28125 -1.609375 C 20.207031 -1.722656 20.132812 -1.832031 20.0625 -1.9375 L 17.9375 -1.9375 C 17.863281 -2.0625 17.78125 -2.1875 17.6875 -2.3125 C 17.601562 -2.445312 17.507812 -2.585938 17.40625 -2.734375 L 17.328125 -2.84375 L 22.234375 -2.84375 L 19.875 -7.03125 L 16.296875 -7.03125 L 14.78125 -9.765625 L 15.921875 -9.765625 L 13.40625 -14.25 L 15.890625 -14.25 L 15.359375 -15.15625 L 14.546875 -15.15625 L 10.609375 -22.1875 L 9.234375 -22.1875 L 9.234375 -15.15625 L 12.015625 -15.15625 L 12.015625 -14.25 L 7.5625 -14.25 L 7.5625 -9.765625 L 9.6875 -9.765625 L 9.6875 -2.84375 L 7.03125 -2.84375 L 7.03125 -1.9375 L 10.109375 -1.9375 L 10.109375 -1.296875 C 10.109375 -0.710938 9.96875 -0.34375 9.6875 -0.1875 C 9.40625 -0.0390625 9.191406 0.03125 9.046875 0.03125 L 5.65625 0.03125 C 5.476562 0.03125 5.25 -0.0390625 4.96875 -0.1875 C 4.695312 -0.34375 4.5625 -0.710938 4.5625 -1.296875 L 4.5625 -1.9375 L 1.484375 -1.9375 L 1.484375 -2.84375 L 4.140625 -2.84375 L 4.140625 -7.03125 L 0.765625 -7.03125 L 0.765625 -9.765625 L 2.015625 -9.765625 L 2.015625 -14.25 L 1.296875 -14.25 L 1.296875 -15.15625 L 3.6875 -15.15625 L 3.6875 -22.1875 L 1.0625 -22.1875 L 1.0625 -24.921875 L 3.421875 -24.921875 L 3.421875 -26.40625 C 3.421875 -26.488281 3.421875 -26.5625 3.421875 -26.625 C 3.421875 -26.6875 3.421875 -26.753906 3.421875 -26.828125 L 1.25 -26.828125 C 1.28125 -27.410156 1.328125 -27.925781 1.390625 -28.375 C 1.453125 -28.832031 1.546875 -29.226562 1.671875 -29.5625 L 4.484375 -29.5625 C 4.609375 -29.863281 4.734375 -30.09375 4.859375 -30.25 C 5.421875 -30.957031 6.242188 -31.3125 7.328125 -31.3125 L 10.140625 -31.3125 C 10.421875 -31.3125 10.675781 -31.304688 10.90625 -31.296875 C 11.132812 -31.285156 11.335938 -31.265625 11.515625 -31.234375 C 11.890625 -31.160156 12.234375 -31.007812 12.546875 -30.78125 C 12.796875 -30.601562 13.070312 -30.3125 13.375 -29.90625 C 13.425781 -29.851562 13.46875 -29.796875 13.5 -29.734375 C 13.539062 -29.671875 13.578125 -29.613281 13.609375 -29.5625 L 10.796875 -29.5625 C 10.890625 -29.414062 10.976562 -29.257812 11.0625 -29.09375 C 11.15625 -28.925781 11.253906 -28.738281 11.359375 -28.53125 L 12.34375 -26.828125 L 14.515625 -26.828125 L 15.578125 -24.921875 L 13.21875 -24.921875 L 14.78125 -22.1875 L 17.40625 -22.1875 L 21.359375 -15.15625 L 22.15625 -15.15625 L 22.640625 -14.25 L 20.171875 -14.25 L 22.6875 -9.765625 L 21.546875 -9.765625 L 22.984375 -7.1875 C 23.035156 -7.101562 23.078125 -7.0625 23.109375 -7.0625 L 23.296875 -7.0625 C 23.296875 -7.09375 23.296875 -7.109375 23.296875 -7.109375 C 23.296875 -7.109375 23.296875 -7.117188 23.296875 -7.140625 L 23.296875 -9.765625 L 24.4375 -9.765625 L 24.4375 -14.25 L 24.125 -14.25 L 24.125 -15.15625 L 26.140625 -15.15625 L 26.140625 -22.1875 L 20.40625 -22.1875 L 20.40625 -24.921875 L 25.84375 -24.921875 L 25.84375 -26.828125 L 23.671875 -26.828125 L 23.671875 -29.5625 L 26.484375 -29.5625 L 26.484375 -29.984375 C 26.484375 -30.585938 26.625 -30.957031 26.90625 -31.09375 C 27.1875 -31.238281 27.398438 -31.3125 27.546875 -31.3125 L 30.9375 -31.3125 C 31.113281 -31.3125 31.332031 -31.238281 31.59375 -31.09375 C 31.863281 -30.957031 32 -30.585938 32 -29.984375 L 32 -29.5625 L 29.1875 -29.5625 L 29.1875 -26.828125 L 33.171875 -26.828125 Z M 19.765625 -28.421875 L 19.765625 -28.921875 L 14.21875 -28.921875 L 14.21875 -28.421875 Z M 16.984375 -4.40625 L 16.984375 -4.828125 L 11.671875 -4.828125 L 11.671875 -4.40625 Z M 22.84375 -25.765625 L 22.84375 -26.1875 L 17.515625 -26.1875 L 17.515625 -25.765625 Z M 22.84375 -25.765625 "/></g></g></g><g fill="#f6f4da" fill-opacity="1"><g transform="translate(364.363216, 155.707472)"><g><path d="M 25.84375 -29.90625 L 30.09375 -29.90625 L 30.09375 -29.140625 L 25.84375 -29.140625 L 25.84375 -27.0625 C 25.84375 -27.007812 25.84375 -26.960938 25.84375 -26.921875 C 25.84375 -26.878906 25.84375 -26.835938 25.84375 -26.796875 L 28.203125 -26.796875 C 28.148438 -26.304688 27.992188 -26.003906 27.734375 -25.890625 C 27.484375 -25.773438 27.296875 -25.71875 27.171875 -25.71875 L 5.3125 -25.765625 C 5.1875 -25.765625 5 -25.820312 4.75 -25.9375 C 4.5 -26.050781 4.347656 -26.335938 4.296875 -26.796875 L 1.9375 -26.796875 C 1.914062 -26.835938 1.90625 -26.925781 1.90625 -27.0625 L 1.90625 -29.140625 L 6.15625 -29.140625 L 6.15625 -29.90625 L 1.90625 -29.90625 L 1.90625 -30.015625 C 1.90625 -30.628906 2.035156 -31.007812 2.296875 -31.15625 C 2.566406 -31.3125 2.789062 -31.390625 2.96875 -31.390625 L 24.78125 -31.390625 C 24.957031 -31.390625 25.175781 -31.3125 25.4375 -31.15625 C 25.707031 -31.007812 25.84375 -30.644531 25.84375 -30.0625 Z M 28.078125 -2.921875 L 31.203125 -2.921875 L 31.203125 -2.171875 L 28.125 -2.171875 L 28.125 -1.296875 C 28.125 -0.710938 27.984375 -0.34375 27.703125 -0.1875 C 27.421875 -0.0390625 27.191406 0.03125 27.015625 0.03125 L 13.53125 0.03125 C 11.851562 0.03125 10.429688 -0.179688 9.265625 -0.609375 C 8.328125 -0.960938 7.503906 -1.484375 6.796875 -2.171875 L 9.921875 -2.171875 C 9.816406 -2.265625 9.722656 -2.347656 9.640625 -2.421875 C 9.566406 -2.503906 9.492188 -2.597656 9.421875 -2.703125 C 9.398438 -2.753906 9.375 -2.796875 9.34375 -2.828125 C 9.320312 -2.867188 9.296875 -2.898438 9.265625 -2.921875 L 6.125 -2.921875 C 5.4375 -3.859375 4.941406 -5.023438 4.640625 -6.421875 C 4.640625 -6.441406 4.628906 -6.457031 4.609375 -6.46875 C 4.597656 -6.488281 4.59375 -6.5 4.59375 -6.5 L 7.9375 -6.5 C 7.789062 -7.226562 7.675781 -8.015625 7.59375 -8.859375 L 4.484375 -8.859375 C 4.460938 -9.460938 4.425781 -10.109375 4.375 -10.796875 L 8.09375 -10.796875 C 8.09375 -10.847656 8.09375 -10.882812 8.09375 -10.90625 C 8.09375 -10.925781 8.09375 -10.953125 8.09375 -10.984375 L 8.09375 -11.734375 L 4.375 -11.734375 L 4.40625 -12.65625 L 6.6875 -12.65625 L 6.6875 -13.40625 L 4.375 -13.40625 L 4.40625 -15.6875 L 6.15625 -15.6875 L 6.15625 -15.953125 C 6.207031 -16.109375 6.257812 -16.25 6.3125 -16.375 C 6.363281 -16.5 6.410156 -16.628906 6.453125 -16.765625 L 4.71875 -16.765625 C 4.738281 -16.785156 4.75 -16.8125 4.75 -16.84375 C 4.75 -16.882812 4.757812 -16.921875 4.78125 -16.953125 C 5.394531 -17.941406 6.269531 -18.472656 7.40625 -18.546875 L 27.015625 -18.578125 C 27.171875 -18.578125 27.382812 -18.5 27.65625 -18.34375 C 27.9375 -18.195312 28.078125 -17.832031 28.078125 -17.25 L 28.078125 -16.765625 L 29.828125 -16.765625 L 29.828125 -15.6875 L 28.078125 -15.6875 L 28.078125 -14.25 C 28.078125 -14.070312 28.054688 -13.910156 28.015625 -13.765625 C 27.984375 -13.628906 27.941406 -13.507812 27.890625 -13.40625 L 30.203125 -13.40625 C 30.109375 -13.207031 29.972656 -13.082031 29.796875 -13.03125 C 29.617188 -12.976562 29.46875 -12.953125 29.34375 -12.953125 L 12.34375 -12.953125 C 12.34375 -12.953125 12.34375 -12.925781 12.34375 -12.875 C 12.34375 -12.832031 12.34375 -12.757812 12.34375 -12.65625 L 10.03125 -12.65625 C 10.03125 -12.550781 10.03125 -12.414062 10.03125 -12.25 C 10.03125 -12.09375 10.03125 -11.921875 10.03125 -11.734375 L 24.046875 -11.734375 C 24.046875 -11.585938 24.046875 -11.425781 24.046875 -11.25 C 24.046875 -11.070312 24.046875 -10.921875 24.046875 -10.796875 L 10 -10.796875 C 10 -10.617188 10 -10.476562 10 -10.375 C 10 -10.269531 10 -10.21875 10 -10.21875 C 10.019531 -10.113281 10.03125 -10.003906 10.03125 -9.890625 C 10.03125 -9.785156 10.039062 -9.664062 10.0625 -9.53125 C 10.113281 -9.3125 10.179688 -9.085938 10.265625 -8.859375 L 13.34375 -8.859375 C 13.46875 -8.453125 13.617188 -8.117188 13.796875 -7.859375 C 14.097656 -7.460938 14.488281 -7.1875 14.96875 -7.03125 C 15.425781 -6.851562 16.070312 -6.765625 16.90625 -6.765625 L 30.328125 -6.765625 C 30.398438 -6.765625 30.503906 -6.75 30.640625 -6.71875 C 30.785156 -6.695312 30.910156 -6.625 31.015625 -6.5 L 27.671875 -6.5 C 27.796875 -6.394531 27.894531 -6.257812 27.96875 -6.09375 C 28.039062 -5.9375 28.078125 -5.71875 28.078125 -5.4375 Z M 6.453125 -20.9375 L 6.453125 -20.515625 L 19.03125 -20.515625 L 19.03125 -20.9375 Z M 18.234375 -8.734375 L 18.234375 -8.328125 L 26.671875 -8.328125 L 26.671875 -8.734375 Z M 11.859375 -24.09375 L 11.859375 -23.484375 L 24.734375 -23.484375 L 24.734375 -24.09375 Z M 11.859375 -24.09375 "/></g></g></g><g fill="#f6f4da" fill-opacity="1"><g transform="translate(396.276002, 155.707472)"><g><path d="M 9.796875 -25.421875 C 9.296875 -25.265625 8.914062 -24.988281 8.65625 -24.59375 C 8.632812 -24.5625 8.609375 -24.519531 8.578125 -24.46875 C 8.554688 -24.414062 8.519531 -24.363281 8.46875 -24.3125 L 13.34375 -24.3125 C 13.238281 -24.132812 13.144531 -23.925781 13.0625 -23.6875 C 12.988281 -23.445312 12.925781 -23.191406 12.875 -22.921875 C 12.851562 -22.765625 12.828125 -22.609375 12.796875 -22.453125 C 12.773438 -22.304688 12.753906 -22.128906 12.734375 -21.921875 L 8.328125 -21.921875 C 8.296875 -21.671875 8.273438 -21.394531 8.265625 -21.09375 C 8.253906 -20.789062 8.25 -20.460938 8.25 -20.109375 L 8.25 -18.09375 L 18.4375 -18.09375 L 18.4375 -17.296875 L 9 -17.296875 L 9 -11.25 L 11.0625 -11.25 C 11.0625 -10.332031 11.097656 -9.535156 11.171875 -8.859375 L 12.28125 -8.859375 C 12.300781 -8.773438 12.3125 -8.695312 12.3125 -8.625 C 12.3125 -8.550781 12.320312 -8.472656 12.34375 -8.390625 C 12.445312 -7.679688 12.664062 -7.125 13 -6.71875 C 13.25 -6.320312 13.628906 -6.046875 14.140625 -5.890625 C 14.585938 -5.710938 15.234375 -5.625 16.078125 -5.625 L 29.71875 -5.625 C 29.894531 -5.625 30.113281 -5.546875 30.375 -5.390625 C 30.644531 -5.242188 30.78125 -4.878906 30.78125 -4.296875 L 30.78125 -3.796875 L 27.25 -3.796875 L 27.25 -1.40625 L 30.359375 -1.40625 L 30.359375 -1.296875 C 30.359375 -1.171875 30.34375 -1.050781 30.3125 -0.9375 C 30.289062 -0.820312 30.269531 -0.722656 30.25 -0.640625 L 26.453125 -0.640625 C 26.347656 -0.335938 26.191406 -0.148438 25.984375 -0.078125 C 25.785156 -0.00390625 25.625 0.03125 25.5 0.03125 L 11.671875 0.03125 C 9.992188 0.03125 8.570312 -0.179688 7.40625 -0.609375 C 7.382812 -0.609375 7.359375 -0.617188 7.328125 -0.640625 L 11.140625 -0.640625 C 10.859375 -0.742188 10.585938 -0.859375 10.328125 -0.984375 C 10.078125 -1.109375 9.835938 -1.25 9.609375 -1.40625 L 6.5 -1.40625 C 5.96875 -1.8125 5.507812 -2.242188 5.125 -2.703125 C 5.03125 -2.878906 4.925781 -3.054688 4.8125 -3.234375 C 4.695312 -3.410156 4.585938 -3.597656 4.484375 -3.796875 L 7.984375 -3.796875 C 7.578125 -4.503906 7.257812 -5.378906 7.03125 -6.421875 C 6.925781 -6.796875 6.847656 -7.1875 6.796875 -7.59375 C 6.742188 -8 6.695312 -8.421875 6.65625 -8.859375 L 5.546875 -8.859375 C 5.472656 -9.617188 5.4375 -10.414062 5.4375 -11.25 L 3.375 -11.25 C 3.375 -11.351562 3.375 -11.457031 3.375 -11.5625 C 3.375 -11.675781 3.375 -11.785156 3.375 -11.890625 L 3.375 -17.296875 L 6.1875 -17.296875 L 6.1875 -18.09375 L 2.578125 -18.09375 L 2.578125 -19.421875 C 2.578125 -20.304688 2.617188 -21.140625 2.703125 -21.921875 L 7.140625 -21.921875 C 7.191406 -22.359375 7.234375 -22.773438 7.265625 -23.171875 C 7.304688 -23.578125 7.367188 -23.957031 7.453125 -24.3125 L 2.578125 -24.3125 C 2.609375 -24.394531 2.628906 -24.476562 2.640625 -24.5625 C 2.648438 -24.65625 2.671875 -24.738281 2.703125 -24.8125 C 2.953125 -25.976562 3.351562 -27.019531 3.90625 -27.9375 L 10.484375 -27.9375 C 10.609375 -28.15625 10.75 -28.351562 10.90625 -28.53125 C 10.976562 -28.613281 11.03125 -28.679688 11.0625 -28.734375 L 9.609375 -28.734375 C 9.960938 -29.160156 10.367188 -29.535156 10.828125 -29.859375 C 11.285156 -30.191406 11.789062 -30.460938 12.34375 -30.671875 C 12.625 -30.742188 12.894531 -30.816406 13.15625 -30.890625 C 13.425781 -30.972656 13.710938 -31.035156 14.015625 -31.078125 L 7.296875 -31.078125 C 8.109375 -31.234375 8.984375 -31.3125 9.921875 -31.3125 L 23.75 -31.3125 C 23.820312 -31.3125 23.921875 -31.296875 24.046875 -31.265625 C 24.179688 -31.242188 24.296875 -31.179688 24.390625 -31.078125 L 29.40625 -31.078125 C 29.539062 -30.984375 29.644531 -30.851562 29.71875 -30.6875 C 29.789062 -30.519531 29.828125 -30.285156 29.828125 -29.984375 L 29.828125 -28.734375 L 31.28125 -28.734375 L 31.28125 -27.9375 L 26.453125 -27.9375 L 26.453125 -27.0625 C 26.453125 -26.445312 26.316406 -26.0625 26.046875 -25.90625 C 25.785156 -25.757812 25.566406 -25.6875 25.390625 -25.6875 L 11.734375 -25.6875 C 11.359375 -25.6875 11.003906 -25.664062 10.671875 -25.625 C 10.347656 -25.59375 10.054688 -25.523438 9.796875 -25.421875 Z M 19.265625 -8.390625 L 19.265625 -7.984375 L 27.546875 -7.984375 L 27.546875 -8.390625 Z M 11.9375 -20.25 L 11.9375 -19.84375 L 20.25 -19.84375 L 20.25 -20.25 Z M 16.078125 -15.15625 L 16.078125 -14.40625 L 28.421875 -14.40625 L 28.421875 -15.15625 Z M 10.140625 -11.25 L 10.140625 -10.828125 L 14.75 -10.828125 L 14.75 -11.25 Z M 10.140625 -11.25 "/></g></g></g><g fill="#f6f4da" fill-opacity="1"><g transform="translate(428.530689, 155.707472)"><g><path d="M 30.59375 -31.3125 C 30.769531 -31.3125 30.992188 -31.238281 31.265625 -31.09375 C 31.546875 -30.957031 31.6875 -30.597656 31.6875 -30.015625 L 31.6875 -28.796875 L 28.765625 -28.796875 L 28.765625 -27.0625 C 28.765625 -26.425781 28.625 -26.035156 28.34375 -25.890625 C 28.070312 -25.753906 27.847656 -25.6875 27.671875 -25.6875 L 17.890625 -25.6875 L 17.890625 -24.546875 L 25.578125 -24.546875 L 25.578125 -23.640625 L 18.65625 -23.640625 L 18.65625 -18.28125 L 21.8125 -18.28125 L 21.8125 -15.5 L 19.265625 -15.5 L 19.265625 -11.328125 L 22.234375 -11.328125 L 22.234375 -10.40625 L 18.65625 -10.40625 L 18.65625 -7.671875 L 22.234375 -7.671875 L 22.234375 -4.9375 L 19.953125 -4.9375 L 21.09375 -4.9375 L 21.09375 -2.234375 L 22.078125 -2.234375 L 22.078125 -1.296875 C 22.078125 -0.710938 21.9375 -0.347656 21.65625 -0.203125 C 21.375 -0.0664062 21.160156 0 21.015625 0 L 17.484375 0 C 17.328125 0 17.109375 -0.0664062 16.828125 -0.203125 C 16.554688 -0.347656 16.421875 -0.710938 16.421875 -1.296875 L 16.421875 -2.234375 L 13.109375 -2.234375 L 13.109375 -4.9375 L 15.203125 -4.9375 L 15.203125 -7.671875 L 13 -7.671875 L 13 -10.40625 L 15.203125 -10.40625 L 15.203125 -11.328125 L 13.609375 -11.328125 L 13.609375 -15.5 L 15.203125 -15.5 L 15.203125 -18.28125 L 13 -18.28125 L 13 -23.640625 L 16.421875 -23.640625 L 16.421875 -24.546875 L 12.28125 -24.546875 L 12.28125 -25.6875 L 2.515625 -25.6875 C 2.328125 -25.6875 2.09375 -25.753906 1.8125 -25.890625 C 1.539062 -26.035156 1.40625 -26.425781 1.40625 -27.0625 L 1.40625 -28.796875 L 4.328125 -28.796875 L 4.328125 -30.015625 C 4.328125 -30.597656 4.46875 -30.957031 4.75 -31.09375 C 5.03125 -31.238281 5.257812 -31.3125 5.4375 -31.3125 Z M 26.671875 -20.75 L 26.671875 -21.734375 L 21.171875 -21.734375 L 21.171875 -20.75 Z M 11.40625 -23.140625 L 11.40625 -23.640625 L 4.328125 -23.640625 L 4.328125 -23.140625 Z M 11.40625 -23.140625 "/></g></g></g><g fill="#f6f4da" fill-opacity="1"><g transform="translate(463.862696, 155.707472)"><g><path d="M 36.5625 -1.40625 C 36.65625 -1.101562 36.691406 -0.847656 36.671875 -0.640625 L 33.625 -0.640625 C 33.625 -0.617188 33.625 -0.59375 33.625 -0.5625 C 33.625 -0.539062 33.625 -0.53125 33.625 -0.53125 C 33.601562 -0.425781 33.535156 -0.304688 33.421875 -0.171875 C 33.304688 -0.0351562 33.097656 0.03125 32.796875 0.03125 L 28.734375 0.03125 C 28.296875 0.03125 27.953125 -0.191406 27.703125 -0.640625 L 30.734375 -0.640625 C 30.734375 -0.640625 30.710938 -0.691406 30.671875 -0.796875 L 30.4375 -1.40625 L 27.46875 -1.40625 L 26.53125 -3.796875 L 28.734375 -3.796875 L 26.671875 -8.859375 L 23.671875 -8.859375 L 22.71875 -11.25 L 24.734375 -11.25 L 22.34375 -17.296875 L 24.09375 -17.296875 L 23.78125 -18.09375 L 20.96875 -18.09375 L 19.421875 -21.921875 L 21.28125 -21.921875 L 20.328125 -24.3125 L 20.109375 -24.3125 C 20.109375 -24.3125 20.09375 -24.300781 20.0625 -24.28125 L 19.15625 -21.921875 L 17.296875 -21.921875 L 15.765625 -18.09375 L 18.578125 -18.09375 L 18.234375 -17.296875 L 16.484375 -17.296875 L 15.234375 -14.09375 L 18.890625 -14.09375 L 18.890625 -13.6875 L 15.09375 -13.6875 L 14.40625 -11.96875 L 19.078125 -11.96875 C 19.585938 -11.96875 19.953125 -11.726562 20.171875 -11.25 L 18.15625 -11.25 C 18.15625 -11.25 18.15625 -11.238281 18.15625 -11.21875 C 18.15625 -11.207031 18.15625 -11.203125 18.15625 -11.203125 L 19.109375 -8.859375 L 22.109375 -8.859375 L 22.53125 -7.828125 C 22.65625 -7.398438 22.601562 -7.03125 22.375 -6.71875 C 22.175781 -6.363281 21.847656 -6.1875 21.390625 -6.1875 L 13.078125 -6.1875 L 12.125 -3.796875 L 9.921875 -3.796875 L 8.96875 -1.40625 L 11.9375 -1.40625 L 11.671875 -0.765625 C 11.671875 -0.734375 11.644531 -0.691406 11.59375 -0.640625 L 8.546875 -0.640625 C 8.347656 -0.191406 8.019531 0.03125 7.5625 0.03125 L 3.375 0.03125 C 3.070312 0.03125 2.863281 -0.0351562 2.75 -0.171875 C 2.632812 -0.304688 2.566406 -0.425781 2.546875 -0.53125 C 2.546875 -0.582031 2.535156 -0.617188 2.515625 -0.640625 L 5.546875 -0.640625 C 5.523438 -0.847656 5.5625 -1.101562 5.65625 -1.40625 L 2.703125 -1.40625 C 2.703125 -1.425781 2.707031 -1.4375 2.71875 -1.4375 C 2.726562 -1.4375 2.734375 -1.4375 2.734375 -1.4375 L 3.640625 -3.796875 L 5.859375 -3.796875 L 7.90625 -8.859375 L 4.90625 -8.859375 L 5.859375 -11.25 L 7.859375 -11.25 L 10.296875 -17.296875 L 12.078125 -17.296875 L 12.390625 -18.09375 L 9.578125 -18.09375 L 11.140625 -21.921875 L 13 -21.921875 L 13.953125 -24.3125 L 11.140625 -24.3125 L 12.546875 -27.78125 C 12.546875 -27.800781 12.550781 -27.820312 12.5625 -27.84375 C 12.570312 -27.875 12.578125 -27.90625 12.578125 -27.9375 L 10.984375 -27.9375 C 11.035156 -28.0625 11.09375 -28.191406 11.15625 -28.328125 C 11.21875 -28.460938 11.273438 -28.597656 11.328125 -28.734375 L 16.078125 -28.734375 C 16.273438 -29.160156 16.472656 -29.523438 16.671875 -29.828125 C 16.878906 -30.128906 17.097656 -30.367188 17.328125 -30.546875 C 17.398438 -30.597656 17.476562 -30.660156 17.5625 -30.734375 C 17.65625 -30.816406 17.753906 -30.882812 17.859375 -30.9375 C 17.910156 -30.957031 17.960938 -30.976562 18.015625 -31 C 18.066406 -31.03125 18.101562 -31.054688 18.125 -31.078125 L 17.03125 -31.078125 C 17.738281 -31.515625 18.519531 -31.734375 19.375 -31.734375 C 20.238281 -31.734375 21.023438 -31.515625 21.734375 -31.078125 L 22.875 -31.078125 C 23.832031 -30.523438 24.503906 -29.742188 24.890625 -28.734375 L 20.140625 -28.734375 C 20.160156 -28.648438 20.179688 -28.578125 20.203125 -28.515625 C 20.234375 -28.453125 20.265625 -28.394531 20.296875 -28.34375 C 20.316406 -28.269531 20.378906 -28.132812 20.484375 -27.9375 L 22.109375 -27.9375 C 22.109375 -27.90625 22.113281 -27.875 22.125 -27.84375 C 22.144531 -27.820312 22.15625 -27.800781 22.15625 -27.78125 L 23.5625 -24.3125 L 26.375 -24.3125 L 27.359375 -21.921875 L 25.5 -21.921875 L 27.0625 -18.09375 L 29.875 -18.09375 L 30.171875 -17.296875 L 28.421875 -17.296875 L 30.859375 -11.25 L 28.84375 -11.25 L 29.796875 -8.859375 L 32.796875 -8.859375 L 34.84375 -3.796875 L 32.6875 -3.796875 L 33.625 -1.4375 C 33.625 -1.4375 33.625 -1.425781 33.625 -1.40625 Z M 17.359375 -4.78125 L 17.359375 -4.40625 L 23.75 -4.40625 L 23.75 -4.78125 Z M 10.75 -2.703125 L 10.75 -2.28125 L 14.9375 -2.28125 L 14.9375 -2.703125 Z M 10.75 -2.703125 "/></g></g></g><g fill="#f6f4da" fill-opacity="1"><g transform="translate(503.06979, 155.707472)"><g><path d="M 29.03125 -18.46875 L 31.34375 -18.46875 L 31.34375 -12.65625 C 31.34375 -12.625 31.34375 -12.585938 31.34375 -12.546875 C 31.34375 -12.515625 31.34375 -12.472656 31.34375 -12.421875 L 29.21875 -12.421875 C 29.21875 -11.585938 29.179688 -10.800781 29.109375 -10.0625 L 30.8125 -10.0625 C 30.6875 -8.945312 30.535156 -7.9375 30.359375 -7.03125 C 30.253906 -6.675781 30.144531 -6.320312 30.03125 -5.96875 C 29.925781 -5.613281 29.796875 -5.285156 29.640625 -4.984375 L 27.546875 -4.984375 C 27.242188 -4.242188 26.863281 -3.609375 26.40625 -3.078125 C 26.351562 -2.972656 26.289062 -2.882812 26.21875 -2.8125 C 26.144531 -2.738281 26.082031 -2.675781 26.03125 -2.625 L 27.8125 -2.625 C 27.5625 -2.34375 27.269531 -2.078125 26.9375 -1.828125 L 23.453125 -1.828125 C 22.816406 -1.347656 22.171875 -0.976562 21.515625 -0.71875 C 20.191406 -0.21875 18.644531 0.03125 16.875 0.03125 L 3.875 0.03125 C 2.601562 0.03125 1.65625 -0.507812 1.03125 -1.59375 C 1 -1.644531 0.976562 -1.6875 0.96875 -1.71875 C 0.957031 -1.757812 0.9375 -1.796875 0.90625 -1.828125 L 4.453125 -1.828125 C 4.367188 -1.953125 4.304688 -2.078125 4.265625 -2.203125 C 4.234375 -2.328125 4.191406 -2.46875 4.140625 -2.625 L 2.359375 -2.625 C 2.359375 -2.644531 2.347656 -2.664062 2.328125 -2.6875 C 2.316406 -2.71875 2.3125 -2.75 2.3125 -2.78125 L 2.3125 -4.984375 L 4.40625 -4.984375 L 4.40625 -10.0625 L 2.734375 -10.0625 L 2.734375 -12.421875 L 4.828125 -12.421875 L 4.859375 -18.46875 L 2.546875 -18.46875 L 2.546875 -19.265625 L 4.375 -19.265625 L 4.375 -23.109375 L 0.90625 -23.109375 L 0.90625 -25.5 L 4.828125 -25.5 L 4.859375 -28.734375 C 4.859375 -28.773438 4.867188 -28.832031 4.890625 -28.90625 C 4.921875 -28.988281 4.953125 -29.054688 4.984375 -29.109375 L 1.140625 -29.109375 C 1.160156 -29.210938 1.195312 -29.304688 1.25 -29.390625 C 1.300781 -29.484375 1.34375 -29.578125 1.375 -29.671875 C 1.414062 -29.722656 1.445312 -29.769531 1.46875 -29.8125 C 1.5 -29.851562 1.53125 -29.882812 1.5625 -29.90625 L 5.3125 -29.90625 C 5.894531 -30.738281 6.722656 -31.195312 7.796875 -31.28125 L 7.796875 -31.3125 L 21.046875 -31.3125 C 22.796875 -31.3125 24.332031 -31.054688 25.65625 -30.546875 C 26.132812 -30.347656 26.5625 -30.132812 26.9375 -29.90625 L 23.1875 -29.90625 C 23.507812 -29.707031 23.863281 -29.441406 24.25 -29.109375 L 28.078125 -29.109375 C 28.234375 -28.984375 28.378906 -28.84375 28.515625 -28.6875 C 28.660156 -28.539062 28.796875 -28.390625 28.921875 -28.234375 C 29.554688 -27.453125 30.035156 -26.539062 30.359375 -25.5 L 26.453125 -25.5 C 26.523438 -25.289062 26.59375 -25.078125 26.65625 -24.859375 C 26.71875 -24.648438 26.773438 -24.445312 26.828125 -24.25 C 26.878906 -24.070312 26.921875 -23.882812 26.953125 -23.6875 C 26.992188 -23.5 27.03125 -23.304688 27.0625 -23.109375 L 30.515625 -23.109375 C 30.691406 -21.960938 30.804688 -20.679688 30.859375 -19.265625 L 29 -19.265625 C 29.019531 -19.160156 29.03125 -19.054688 29.03125 -18.953125 C 29.03125 -18.859375 29.03125 -18.75 29.03125 -18.625 Z M 25.71875 -12.421875 L 25.71875 -18.46875 L 16.375 -18.46875 L 16.375 -19.1875 C 16.375 -19.21875 16.375 -19.234375 16.375 -19.234375 C 16.375 -19.234375 16.375 -19.242188 16.375 -19.265625 L 25.234375 -19.265625 C 25.234375 -19.867188 25.210938 -20.4375 25.171875 -20.96875 C 25.140625 -21.507812 25.070312 -21.976562 24.96875 -22.375 C 24.9375 -22.507812 24.910156 -22.640625 24.890625 -22.765625 C 24.867188 -22.890625 24.832031 -23.003906 24.78125 -23.109375 L 21.3125 -23.109375 C 21.132812 -23.640625 20.929688 -24.039062 20.703125 -24.3125 C 20.398438 -24.769531 19.929688 -25.113281 19.296875 -25.34375 C 19.222656 -25.375 19.148438 -25.398438 19.078125 -25.421875 C 19.003906 -25.441406 18.914062 -25.46875 18.8125 -25.5 L 22.765625 -25.5 C 22.503906 -25.550781 22.226562 -25.59375 21.9375 -25.625 C 21.65625 -25.664062 21.332031 -25.6875 20.96875 -25.6875 L 10.453125 -25.6875 C 10.453125 -25.6875 10.425781 -25.625 10.375 -25.5 L 6.453125 -25.5 C 6.453125 -25.46875 6.453125 -25.453125 6.453125 -25.453125 L 6.453125 -23.109375 L 9.921875 -23.109375 L 9.921875 -19.265625 L 8.09375 -19.265625 L 8.09375 -18.46875 L 10.40625 -18.46875 L 10.40625 -12.421875 L 8.28125 -12.421875 L 8.28125 -10.0625 L 10 -10.0625 L 10 -8.171875 L 17.671875 -8.171875 L 17.671875 -6.921875 L 10 -6.921875 L 10 -5.8125 C 10 -5.738281 10.003906 -5.6875 10.015625 -5.65625 C 10.023438 -5.632812 10.03125 -5.625 10.03125 -5.625 L 20.59375 -5.625 C 21.019531 -5.625 21.421875 -5.648438 21.796875 -5.703125 C 22.179688 -5.753906 22.53125 -5.828125 22.84375 -5.921875 C 23.425781 -6.148438 23.894531 -6.492188 24.25 -6.953125 C 24.625 -7.460938 24.890625 -8.125 25.046875 -8.9375 C 25.097656 -9.113281 25.128906 -9.296875 25.140625 -9.484375 C 25.148438 -9.671875 25.164062 -9.863281 25.1875 -10.0625 L 23.484375 -10.0625 C 23.554688 -10.675781 23.59375 -11.347656 23.59375 -12.078125 L 23.59375 -12.421875 Z M 12.8125 -12.234375 L 12.8125 -11.859375 L 21.125 -11.859375 L 21.125 -12.234375 Z M 9.3125 -15.84375 L 9.3125 -15.421875 L 17.59375 -15.421875 L 17.59375 -15.84375 Z M 10.1875 -24.78125 L 10.1875 -24.359375 L 15.46875 -24.359375 L 15.46875 -24.78125 Z M 10.1875 -24.78125 "/></g></g></g><g fill="#f6f4da" fill-opacity="1"><g transform="translate(537.565977, 155.707472)"><g><path d="M 32.265625 -17.40625 L 30.203125 -17.40625 L 30.203125 -16.484375 L 31.609375 -16.484375 L 31.609375 -12.015625 L 32.265625 -12.015625 L 32.265625 -11.890625 C 32.265625 -10.953125 32.222656 -10.078125 32.140625 -9.265625 L 31.015625 -9.265625 C 30.984375 -8.734375 30.925781 -8.238281 30.84375 -7.78125 C 30.769531 -7.332031 30.6875 -6.890625 30.59375 -6.453125 C 30.5625 -6.203125 30.507812 -5.960938 30.4375 -5.734375 C 30.363281 -5.503906 30.285156 -5.273438 30.203125 -5.046875 L 28.734375 -5.046875 C 28.679688 -4.898438 28.625 -4.75 28.5625 -4.59375 C 28.5 -4.445312 28.425781 -4.296875 28.34375 -4.140625 L 30.859375 -4.140625 C 30.578125 -3.585938 30.285156 -3.109375 29.984375 -2.703125 C 29.578125 -2.210938 29.109375 -1.78125 28.578125 -1.40625 L 26.53125 -1.40625 C 26.269531 -1.25 26.015625 -1.101562 25.765625 -0.96875 C 25.515625 -0.832031 25.25 -0.710938 24.96875 -0.609375 C 23.75 -0.179688 22.316406 0.03125 20.671875 0.03125 L 11.40625 0.03125 C 9.726562 0.03125 8.304688 -0.179688 7.140625 -0.609375 C 6.859375 -0.710938 6.582031 -0.832031 6.3125 -0.96875 C 6.050781 -1.101562 5.8125 -1.25 5.59375 -1.40625 L 7.640625 -1.40625 C 7.078125 -1.78125 6.609375 -2.222656 6.234375 -2.734375 C 6.078125 -2.941406 5.929688 -3.164062 5.796875 -3.40625 C 5.660156 -3.644531 5.523438 -3.890625 5.390625 -4.140625 L 1.90625 -4.140625 C 1.820312 -4.296875 1.75 -4.445312 1.6875 -4.59375 C 1.625 -4.75 1.566406 -4.898438 1.515625 -5.046875 L 3.984375 -5.046875 C 3.910156 -5.273438 3.84375 -5.503906 3.78125 -5.734375 C 3.71875 -5.960938 3.660156 -6.203125 3.609375 -6.453125 C 3.503906 -6.859375 3.421875 -7.296875 3.359375 -7.765625 C 3.296875 -8.234375 3.238281 -8.734375 3.1875 -9.265625 L 2.015625 -9.265625 C 1.941406 -10.078125 1.90625 -10.953125 1.90625 -11.890625 L 1.90625 -12.015625 L 3.265625 -12.015625 L 3.265625 -16.484375 L 1.484375 -16.484375 L 1.484375 -17.40625 L 4.21875 -17.40625 L 4.21875 -19.421875 C 4.21875 -21.347656 4.367188 -23.003906 4.671875 -24.390625 L 1.90625 -24.390625 C 1.925781 -24.472656 1.9375 -24.550781 1.9375 -24.625 C 1.9375 -24.695312 1.945312 -24.757812 1.96875 -24.8125 C 2.144531 -25.675781 2.414062 -26.445312 2.78125 -27.125 L 4.5625 -27.125 C 4.789062 -27.664062 5.066406 -28.132812 5.390625 -28.53125 C 5.441406 -28.632812 5.507812 -28.722656 5.59375 -28.796875 C 5.6875 -28.878906 5.773438 -28.957031 5.859375 -29.03125 L 7.9375 -29.03125 C 8.625 -29.738281 9.445312 -30.285156 10.40625 -30.671875 C 11.625 -31.097656 13.054688 -31.3125 14.703125 -31.3125 L 23.9375 -31.3125 C 25.582031 -31.3125 27.015625 -31.097656 28.234375 -30.671875 C 29.242188 -30.285156 30.078125 -29.738281 30.734375 -29.03125 L 28.65625 -29.03125 C 28.726562 -28.957031 28.800781 -28.878906 28.875 -28.796875 C 28.957031 -28.722656 29.035156 -28.632812 29.109375 -28.53125 C 29.441406 -28.132812 29.71875 -27.664062 29.9375 -27.125 L 28.203125 -27.125 C 28.554688 -26.445312 28.820312 -25.675781 29 -24.8125 C 29.019531 -24.757812 29.03125 -24.695312 29.03125 -24.625 C 29.03125 -24.550781 29.039062 -24.472656 29.0625 -24.390625 L 31.84375 -24.390625 C 31.96875 -23.679688 32.066406 -22.914062 32.140625 -22.09375 C 32.222656 -21.269531 32.265625 -20.378906 32.265625 -19.421875 Z M 24.546875 -16.484375 L 23.59375 -16.484375 L 23.59375 -17.40625 L 26.59375 -17.40625 L 26.59375 -20.0625 C 26.59375 -20.625 26.582031 -21.140625 26.5625 -21.609375 C 26.539062 -22.078125 26.488281 -22.5 26.40625 -22.875 C 26.28125 -23.476562 26.101562 -23.984375 25.875 -24.390625 L 23.109375 -24.390625 C 23.078125 -24.441406 23.054688 -24.476562 23.046875 -24.5 C 23.035156 -24.53125 23.015625 -24.5625 22.984375 -24.59375 C 22.734375 -24.945312 22.367188 -25.222656 21.890625 -25.421875 C 21.640625 -25.492188 21.347656 -25.554688 21.015625 -25.609375 C 20.679688 -25.660156 20.3125 -25.6875 19.90625 -25.6875 L 11.015625 -25.6875 C 10.609375 -25.6875 10.25 -25.660156 9.9375 -25.609375 C 9.625 -25.554688 9.335938 -25.492188 9.078125 -25.421875 C 8.578125 -25.222656 8.195312 -24.945312 7.9375 -24.59375 C 7.914062 -24.5625 7.894531 -24.53125 7.875 -24.5 C 7.863281 -24.476562 7.847656 -24.441406 7.828125 -24.390625 L 10.609375 -24.390625 C 10.347656 -23.984375 10.164062 -23.476562 10.0625 -22.875 C 9.988281 -22.5 9.9375 -22.078125 9.90625 -21.609375 C 9.882812 -21.140625 9.875 -20.625 9.875 -20.0625 L 9.875 -17.40625 L 17.4375 -17.40625 L 17.4375 -16.484375 L 8.890625 -16.484375 L 8.890625 -12.015625 L 7.53125 -12.015625 L 7.53125 -11.203125 C 7.53125 -10.492188 7.566406 -9.847656 7.640625 -9.265625 L 8.8125 -9.265625 C 8.84375 -9.117188 8.863281 -8.96875 8.875 -8.8125 C 8.882812 -8.664062 8.90625 -8.523438 8.9375 -8.390625 C 9.0625 -7.660156 9.273438 -7.101562 9.578125 -6.71875 C 9.828125 -6.320312 10.191406 -6.046875 10.671875 -5.890625 C 11.179688 -5.710938 11.84375 -5.625 12.65625 -5.625 L 21.546875 -5.625 C 22.378906 -5.625 23.023438 -5.710938 23.484375 -5.890625 C 23.992188 -6.046875 24.375 -6.320312 24.625 -6.71875 C 24.78125 -6.925781 24.90625 -7.175781 25 -7.46875 C 25.101562 -7.757812 25.191406 -8.066406 25.265625 -8.390625 C 25.296875 -8.523438 25.316406 -8.664062 25.328125 -8.8125 C 25.335938 -8.96875 25.359375 -9.117188 25.390625 -9.265625 L 26.53125 -9.265625 C 26.550781 -9.546875 26.566406 -9.847656 26.578125 -10.171875 C 26.585938 -10.503906 26.59375 -10.847656 26.59375 -11.203125 L 26.59375 -12.015625 L 24.546875 -12.015625 Z M 22.375 -9.578125 L 22.375 -10.0625 L 16.828125 -10.0625 L 16.828125 -9.578125 Z M 15.125 -7.71875 L 15.125 -7.984375 L 11.515625 -7.984375 L 11.515625 -7.71875 Z M 22.375 -22 L 22.375 -22.71875 L 15.15625 -22.71875 L 15.15625 -22 Z M 15.890625 -12.6875 L 15.890625 -13.078125 L 10.5625 -13.078125 L 10.5625 -12.6875 Z M 15.890625 -12.6875 "/></g></g></g></svg>